<svg width="46px" height="46px" viewBox="0 0 46 46" xmlns="http://www.w3.org/2000/svg">
    <defs>
        <clipPath id="i1">
            <path d="M11,0 L22,4 L11,8 L0,4 L11,0 Z"></path>
        </clipPath>
        <clipPath id="i2">
            <path d="M11,0 L0,17 L0,4.25 L11,0 Z"></path>
        </clipPath>
        <clipPath id="i3">
            <path d="M0,0 L11,4.25 L11,17 L0,0 Z"></path>
        </clipPath>
    </defs>
    <g transform="translate(12 13)">
        <g clip-path="url(#i1)">
            <polygon points="0,0 22,0 22,8 0,8 0,0" stroke="none" fill="#44AEF5"></polygon>
        </g>
        <g transform="translate(11 4)">
            <g clip-path="url(#i2)">
                <polygon points="0,0 11,0 11,17 0,17 0,0" stroke="none" fill="#44AEF5" opacity="60%"></polygon>
            </g>
        </g>
        <g transform="translate(0 4)">
            <g clip-path="url(#i3)">
                <polygon points="0,0 11,0 11,17 0,17 0,0" stroke="none" fill="#44AEF5" opacity="80%"></polygon>
            </g>
        </g>
    </g>
</svg>