<svg viewBox="0 0 36 22" xmlns="http://www.w3.org/2000/svg">
    <path d="M11.5606602,0.439339828 C12.109835,0.988514613 12.1441584,1.85757702 11.6636304,2.44673776 L11.5606602,2.56066017 L5.12,9 L34.5065848,9 C35.3313753,9 36,9.67157288 36,10.5 C36,11.2796961 35.4077234,11.9204487 34.6504107,11.9931334 L34.5065848,12 L5.12,12 L11.5606602,18.4393398 C12.109835,18.9885146 12.1441584,19.857577 11.6636304,20.4467378 L11.5606602,20.5606602 C11.0114854,21.109835 10.142423,21.1441584 9.55326224,20.6636304 L9.43933983,20.5606602 L0.439339828,11.5606602 C-0.109834957,11.0114854 -0.144158381,10.142423 0.336369556,9.55326224 L0.439339828,9.43933983 L9.43933983,0.439339828 C10.0251263,-0.146446609 10.9748737,-0.146446609 11.5606602,0.439339828 Z"></path>
</svg>