<svg width="15px" height="17px" viewBox="0 0 15 17" xmlns="http://www.w3.org/2000/svg">
    <path d="M8.6171875,0 C9.2109375,0 9.67578125,0.15625 10.0117188,0.46875 C10.3476562,0.78125 10.515625,1.21354167 10.515625,1.765625 L10.515,2.875 L13.84375,2.875 C13.9770833,2.875 14.0945833,2.9125 14.19625,2.9875 L14.2695312,3.05078125 C14.3867188,3.16796875 14.4453125,3.30989583 14.4453125,3.4765625 C14.4453125,3.65364583 14.3867188,3.80078125 14.2695312,3.91796875 C14.1523438,4.03515625 14.0104167,4.09375 13.84375,4.09375 L12.9921875,4.09375 L12.4921875,14.78125 C12.4609375,15.3333333 12.2773438,15.7708333 11.9414062,16.09375 C11.6054688,16.4166667 11.1640625,16.578125 10.6171875,16.578125 L3.828125,16.578125 C3.28125,16.578125 2.83984375,16.4179688 2.50390625,16.0976562 C2.16796875,15.7773438 1.984375,15.3411458 1.953125,14.7890625 L1.453125,4.09375 L0.6015625,4.09375 C0.440104167,4.09375 0.299479167,4.03515625 0.1796875,3.91796875 C0.0598958333,3.80078125 0,3.65364583 0,3.4765625 C0,3.30989583 0.0598958333,3.16796875 0.1796875,3.05078125 C0.299479167,2.93359375 0.440104167,2.875 0.6015625,2.875 L3.921,2.875 L3.921875,1.765625 C3.921875,1.27488426 4.05459105,0.878793724 4.32002315,0.577353395 L4.42578125,0.46875 C4.76171875,0.15625 5.22395833,0 5.8125,0 Z M11.703125,4.09375 L2.7109375,4.09375 L3.21875,14.6171875 C3.22916667,14.8307292 3.30338542,15.0065104 3.44140625,15.1445312 C3.57942708,15.2825521 3.75260417,15.3515625 3.9609375,15.3515625 L10.4765625,15.3515625 C10.6901042,15.3515625 10.8658854,15.2838542 11.0039062,15.1484375 C11.1419271,15.0130208 11.2161458,14.8359375 11.2265625,14.6171875 L11.703125,4.09375 Z M4.8125,5.3828125 C4.953125,5.3828125 5.06770833,5.42447917 5.15625,5.5078125 C5.24479167,5.59114583 5.29166667,5.703125 5.296875,5.84375 L5.5234375,13.6640625 C5.52864583,13.7994792 5.48567708,13.9101562 5.39453125,13.9960938 C5.30338542,14.0820312 5.18489583,14.125 5.0390625,14.125 C4.89322917,14.125 4.77734375,14.0833333 4.69140625,14 C4.60546875,13.9166667 4.55989583,13.8046875 4.5546875,13.6640625 L4.328125,5.8515625 C4.328125,5.7109375 4.37109375,5.59765625 4.45703125,5.51171875 C4.54296875,5.42578125 4.66145833,5.3828125 4.8125,5.3828125 Z M7.2265625,5.3828125 C7.37239583,5.3828125 7.49088542,5.42578125 7.58203125,5.51171875 C7.67317708,5.59765625 7.71875,5.70833333 7.71875,5.84375 L7.71875,13.6640625 C7.71875,13.8046875 7.67317708,13.9166667 7.58203125,14 C7.49088542,14.0833333 7.37239583,14.125 7.2265625,14.125 C7.08072917,14.125 6.9609375,14.0833333 6.8671875,14 C6.7734375,13.9166667 6.7265625,13.8046875 6.7265625,13.6640625 L6.7265625,5.84375 C6.7265625,5.70833333 6.7734375,5.59765625 6.8671875,5.51171875 C6.9609375,5.42578125 7.08072917,5.3828125 7.2265625,5.3828125 Z M9.6328125,5.3828125 C9.78385417,5.3828125 9.90234375,5.42578125 9.98828125,5.51171875 C10.0742188,5.59765625 10.1171875,5.7109375 10.1171875,5.8515625 L9.890625,13.671875 C9.88541667,13.8072917 9.83984375,13.9166667 9.75390625,14 C9.66796875,14.0833333 9.55208333,14.125 9.40625,14.125 C9.26041667,14.125 9.14322917,14.0820312 9.0546875,13.9960938 C8.96614583,13.9101562 8.921875,13.7994792 8.921875,13.6640625 L9.1484375,5.8515625 C9.15364583,5.70572917 9.20052083,5.59114583 9.2890625,5.5078125 C9.37760417,5.42447917 9.4921875,5.3828125 9.6328125,5.3828125 Z M8.53125,1.171875 L5.8984375,1.171875 C5.69010417,1.171875 5.52083333,1.23177083 5.390625,1.3515625 C5.26041667,1.47135417 5.1953125,1.63020833 5.1953125,1.828125 L5.195,2.875 L9.234,2.875 L9.234375,1.828125 C9.234375,1.66979167 9.19354167,1.53645833 9.111875,1.428125 L9.04296875,1.3515625 C8.91536458,1.23177083 8.74479167,1.171875 8.53125,1.171875 Z"></path>
</svg>