<svg version="1.1" width="17px" height="17px" viewBox="0 0 17 17" xmlns="http://www.w3.org/2000/svg">
    <path d="M8.06005859,0 C9.16129557,0 10.1988932,0.208902995 11.1728516,0.626708984 C12.1468099,1.04451497 13.0045573,1.62556966 13.7460938,2.36987305 C14.4876302,3.11417643 15.0700684,3.97330729 15.4934082,4.94726562 C15.916748,5.92122396 16.128418,6.95882161 16.128418,8.06005859 C16.128418,9.16682943 15.9181315,10.2058105 15.4975586,11.177002 C15.0769857,12.1481934 14.495931,13.0045573 13.7543945,13.7460938 C13.0128581,14.4876302 12.1551107,15.0700684 11.1811523,15.4934082 C10.207194,15.916748 9.16959635,16.128418 8.06835938,16.128418 C6.96158854,16.128418 5.92260742,15.916748 4.95141602,15.4934082 C3.98022461,15.0700684 3.12386068,14.4876302 2.38232422,13.7460938 C1.64078776,13.0045573 1.05834961,12.1481934 0.635009766,11.177002 C0.211669922,10.2058105 0,9.16682943 0,8.06005859 C0,6.95882161 0.210286458,5.92122396 0.630859375,4.94726562 C1.05143229,3.97330729 1.63387044,3.11417643 2.37817383,2.36987305 C3.12247721,1.62556966 3.98022461,1.04451497 4.95141602,0.626708984 C5.92260742,0.208902995 6.95882161,0 8.06005859,0 Z M8.06005859,1.47753906 C7.14697266,1.47753906 6.29337565,1.64632161 5.49926758,1.98388672 C4.70515951,2.32145182 4.00651042,2.79182943 3.40332031,3.39501953 C2.80013021,3.99820964 2.3297526,4.69824219 1.9921875,5.49511719 C1.6546224,6.29199219 1.48583984,7.14697266 1.48583984,8.06005859 C1.48583984,8.97314453 1.6546224,9.828125 1.9921875,10.625 C2.3297526,11.421875 2.80013021,12.1219076 3.40332031,12.7250977 C4.00651042,13.3282878 4.70654297,13.8000488 5.50341797,14.1403809 C6.30029297,14.4807129 7.15527344,14.6508789 8.06835938,14.6508789 C8.98144531,14.6508789 9.83780924,14.4807129 10.6374512,14.1403809 C11.4370931,13.8000488 12.1371257,13.3282878 12.7375488,12.7250977 C13.337972,12.1219076 13.8083496,11.421875 14.1486816,10.625 C14.4890137,9.828125 14.6564128,8.97314453 14.6508789,8.06005859 C14.6508789,7.14697266 14.4807129,6.29199219 14.1403809,5.49511719 C13.8000488,4.69824219 13.3282878,3.99820964 12.7250977,3.39501953 C12.1219076,2.79182943 11.421875,2.32145182 10.625,1.98388672 C9.828125,1.64632161 8.97314453,1.47753906 8.06005859,1.47753906 Z M9.71191406,5.40380859 L10.6748047,6.375 L5.59472656,11.4467773 L4.50732422,11.8535156 C4.4132487,11.8922526 4.32747396,11.8728841 4.25,11.7954102 C4.17252604,11.7179362 4.15315755,11.6266276 4.19189453,11.5214844 L4.64013672,10.4755859 L9.71191406,5.40380859 Z M11.1687012,4.16699219 C11.3153483,4.15592448 11.4495443,4.21402995 11.5712891,4.34130859 L11.7456055,4.515625 C11.8728841,4.64290365 11.932373,4.77848307 11.9240723,4.92236328 C11.9157715,5.06624349 11.8452148,5.20458984 11.7124023,5.33740234 L11.1479492,5.91015625 L10.1850586,4.93896484 L10.7578125,4.37451172 C10.8850911,4.24723307 11.022054,4.1780599 11.1687012,4.16699219 Z"></path>
</svg>