<?xml version="1.0" encoding="UTF-8"?>
<svg width="116px" height="65px" viewBox="0 0 116 65" version="1.1" xmlns="http://www.w3.org/2000/svg" xmlns:xlink="http://www.w3.org/1999/xlink">
    <title>image</title>
    <defs>
        <rect id="path-1" x="0" y="0" width="116" height="65" rx="4"></rect>
    </defs>
    <g id="⌽-Создать-проект" stroke="none" stroke-width="1" fill="none" fill-rule="evenodd">
        <g id="Style-guide" transform="translate(-291.000000, -1587.000000)">
            <g id="Add-preview-Copy" transform="translate(270.000000, 1557.000000)">
                <g id="image" transform="translate(21.000000, 30.000000)">
                    <mask id="mask-2" fill="white">
                        <use xlink:href="#path-1"></use>
                    </mask>
                    <use id="Mask" fill="#EAEAEA" xlink:href="#path-1"></use>
                    <g id="􀏅" mask="url(#mask-2)" fill="#DBDBDB" fill-rule="nonzero">
                        <g transform="translate(-0.000000, 9.000000)" id="Shape">
                            <path d="M76.612786,16 C78.0659941,16 79.4905204,16.2797068 80.8863651,16.8391204 C82.1426252,17.3425926 83.3137007,18.0570023 84.3995913,18.9823495 L84.7583999,19.2986111 L116,48.798 L116,56 L0,55.999 L0,49.878 L19.6508521,32.1458333 C20.6366541,31.254201 21.6375642,30.5530883 22.6535824,30.0424954 L23.0352974,29.8599537 C24.1825669,29.3391204 25.3680788,29.0787037 26.591833,29.0787037 C27.8538295,29.0787037 29.1062655,29.3487654 30.3491408,29.8888889 C31.4539189,30.3689986 32.5209268,31.0320073 33.5501645,31.877915 L33.9343582,32.2037037 L43.9156034,41.3472222 L68.4671721,19.2407407 C69.6909263,18.1219136 70.9816045,17.3020833 72.3392068,16.78125 C73.6968091,16.2604167 75.1213355,16 76.612786,16 Z M34.0222717,0 C35.8634001,0 37.5412027,0.458240946 39.0556793,1.37472284 C40.5701559,2.29120473 41.7728285,3.51071693 42.6636971,5.03325942 C43.5545657,6.55580192 44,8.20399113 44,9.97782705 C44,11.8403548 43.5545657,13.5254989 42.6636971,15.0332594 C41.7728285,16.54102 40.5701559,17.7457502 39.0556793,18.6474501 C37.5412027,19.54915 35.8634001,20 34.0222717,20 C32.1811433,20 30.5033408,19.54915 28.9888641,18.6474501 C27.4743875,17.7457502 26.264291,16.54102 25.3585746,15.0332594 C24.4528582,13.5254989 24,11.8403548 24,9.97782705 C24,8.20399113 24.4528582,6.55580192 25.3585746,5.03325942 C26.264291,3.51071693 27.4743875,2.29120473 28.9888641,1.37472284 C30.5033408,0.458240946 32.1811433,0 34.0222717,0 Z"></path>
                        </g>
                    </g>
                </g>
            </g>
        </g>
    </g>
</svg>