<?xml version="1.0" encoding="UTF-8"?>
<svg width="14px" height="20px" viewBox="0 0 14 20" version="1.1" xmlns="http://www.w3.org/2000/svg" xmlns:xlink="http://www.w3.org/1999/xlink">
    <title>icon/project/lock_money</title>
    <g id="⎋-Style-guide" stroke="none" stroke-width="1" fill="none" fill-rule="evenodd">
        <g id="Style-guide" transform="translate(-995.000000, -121.000000)">
            <g id="icon/project/lock_money" transform="translate(992.000000, 121.000000)">
                <rect id="icon_area" x="0" y="0" width="20" height="20"></rect>
                <path d="M5.30122324,20 L14.6880734,20 C15.4658512,20 16.0456167,19.802139 16.42737,19.4064171 C16.8091233,19.0106952 17,18.3957219 17,17.5614973 L17,10.4705882 C17,9.64349376 16.8091233,9.03386809 16.42737,8.64171123 C16.0456167,8.24955437 15.4658512,8.05347594 14.6880734,8.05347594 L5.30122324,8.05347594 C4.53771662,8.05347594 3.96330275,8.24955437 3.57798165,8.64171123 C3.19266055,9.03386809 3,9.64349376 3,10.4705882 L3,17.5614973 C3,18.3957219 3.19266055,19.0106952 3.57798165,19.4064171 C3.96330275,19.802139 4.53771662,20 5.30122324,20 Z M5.49388379,18.3208556 C5.26554536,18.3208556 5.09429154,18.2638146 4.98012232,18.1497326 C4.86595311,18.0356506 4.8088685,17.8431373 4.8088685,17.5721925 L4.8088685,10.459893 C4.8088685,10.1889483 4.86595311,9.99821747 4.98012232,9.88770053 C5.09429154,9.7771836 5.26554536,9.72192513 5.49388379,9.72192513 L14.5168196,9.72192513 C14.745158,9.72192513 14.9146279,9.7771836 15.0252294,9.88770053 C15.1358308,9.99821747 15.1911315,10.1889483 15.1911315,10.459893 L15.1911315,17.5721925 C15.1911315,17.8431373 15.1358308,18.0356506 15.0252294,18.1497326 C14.9146279,18.2638146 14.745158,18.3208556 14.5168196,18.3208556 L5.49388379,18.3208556 Z M4.79816514,8.88770053 L6.57492355,8.88770053 L6.57492355,5.47593583 C6.57492355,4.65597148 6.73190622,3.96613191 7.04587156,3.40641711 C7.3598369,2.84670232 7.77726809,2.42424242 8.29816514,2.13903743 C8.81906218,1.85383244 9.38634047,1.71122995 10,1.71122995 C10.6207951,1.71122995 11.1880734,1.85383244 11.7018349,2.13903743 C12.2155963,2.42424242 12.6294597,2.84670232 12.9434251,3.40641711 C13.2573904,3.96613191 13.4143731,4.65597148 13.4143731,5.47593583 L13.4143731,8.88770053 L15.2018349,8.88770053 L15.2018349,5.67914439 C15.2018349,4.72370766 15.0573394,3.88948307 14.7683486,3.17647059 C14.4793578,2.46345811 14.088685,1.87165775 13.5963303,1.40106952 C13.1039755,0.930481283 12.5474006,0.579322638 11.9266055,0.347593583 C11.3058104,0.115864528 10.6636086,0 10,0 C9.32925586,0 8.68348624,0.115864528 8.06269113,0.347593583 C7.44189602,0.579322638 6.88710499,0.930481283 6.39831804,1.40106952 C5.90953109,1.87165775 5.5206422,2.46345811 5.23165138,3.17647059 C4.94266055,3.88948307 4.79816514,4.72370766 4.79816514,5.67914439 L4.79816514,8.88770053 Z" id="Shape" fill="#000000" fill-rule="nonzero"></path>
            </g>
        </g>
    </g>
</svg>