<svg version="1.1" width="12px" height="16px" viewBox="0 0 12 16" xmlns="http://www.w3.org/2000/svg">
    <defs>
        <clipPath id="i0">
            <path d="M1920,0 L1920,1333 L0,1333 L0,0 L1920,0 Z"></path>
        </clipPath>
        <clipPath id="i1">
            <path d="M5.6,0 C8.6927946,0 11.2,2.5072054 11.2,5.6 C11.2,6.09484714 11.1139715,6.69758319 10.9602705,7.36101562 L10.8994964,7.61255575 C10.7504557,8.20569124 10.55136,8.84078093 10.3145065,9.48620949 L10.210722,9.76336255 C10.1753805,9.85589646 10.1393043,9.94854918 10.1025292,10.0412286 L9.99014322,10.3192545 C9.91386931,10.5045355 9.83494334,10.6895544 9.75365214,10.8735739 L9.62997727,11.1487613 C9.5881849,11.2401791 9.54583708,11.3312549 9.50296965,11.4218965 L9.3728444,11.6924264 C8.23220388,14.0241317 6.76454571,16 5.6,16 C4.43545429,16 2.96779612,14.0241317 1.8271556,11.6924264 L1.69703035,11.4218965 C1.65416292,11.3312549 1.6118151,11.2401791 1.57002273,11.1487613 L1.44634786,10.8735739 C1.36505666,10.6895544 1.28613069,10.5045355 1.20985678,10.3192545 L1.0974708,10.0412286 C1.06069572,9.94854918 1.02461951,9.85589646 0.989278009,9.76336255 L0.885493513,9.48620949 C0.648640009,8.84078093 0.449544328,8.20569124 0.300503616,7.61255575 L0.239729467,7.36101562 C0.0860285187,6.69758319 0,6.09484714 0,5.6 C0,2.5072054 2.5072054,0 5.6,0 Z M5.6,1.33333333 C3.24358507,1.33333333 1.33333333,3.24358507 1.33333333,5.6 C1.33333333,6.49626439 1.71419275,7.97092957 2.32178618,9.51104655 L2.42813737,9.77561206 C2.44622316,9.81978126 2.46448685,9.86397997 2.48292484,9.90819622 L2.5956157,10.1736085 C2.61473653,10.217847 2.63402448,10.2620792 2.65347595,10.306293 L2.77211825,10.5712599 L2.89451249,10.835212 C2.97732096,11.0107142 3.06251568,11.1851572 3.14986661,11.3577751 C3.68679014,12.4188126 4.26074758,13.3231157 4.79161457,13.9411141 C5.04183021,14.2323977 5.27082132,14.4460899 5.46024475,14.5734254 C5.50264482,14.6019278 5.54016989,14.6241547 5.57206407,14.6405588 L5.6,14.6538667 L5.62793593,14.6405588 L5.67373196,14.6151964 L5.69900817,14.5998528 L5.73975525,14.5734254 C5.92917868,14.4460899 6.15816979,14.2323977 6.40838543,13.9411141 C6.93925242,13.3231157 7.51320986,12.4188126 8.05013339,11.3577751 C8.13748432,11.1851572 8.22267904,11.0107142 8.30548751,10.835212 L8.42788175,10.5712599 L8.54652405,10.306293 C8.56597552,10.2620792 8.58526347,10.217847 8.6043843,10.1736085 L8.71707516,9.90819622 C8.73551315,9.86397997 8.75377684,9.81978126 8.77186263,9.77561206 L8.87821382,9.51104655 C9.48580725,7.97092957 9.86666667,6.49626439 9.86666667,5.6 C9.86666667,3.24358507 7.95641493,1.33333333 5.6,1.33333333 Z"></path>
        </clipPath>
        <clipPath id="i2">
            <path d="M1.86666667,0 C2.8975982,0 3.73333333,0.835735134 3.73333333,1.86666667 C3.73333333,2.8975982 2.8975982,3.73333333 1.86666667,3.73333333 C0.835735134,3.73333333 0,2.8975982 0,1.86666667 C0,0.835735134 0.835735134,0 1.86666667,0 Z M1.86666667,1.33333333 C1.5721148,1.33333333 1.33333333,1.5721148 1.33333333,1.86666667 C1.33333333,2.16121853 1.5721148,2.4 1.86666667,2.4 C2.16121853,2.4 2.4,2.16121853 2.4,1.86666667 C2.4,1.5721148 2.16121853,1.33333333 1.86666667,1.33333333 Z"></path>
        </clipPath>
    </defs>
    <g transform="translate(-1294.0 -121.0)">
        <g clip-path="url(#i0)">
            <g transform="translate(1292.000000000001 121.0)">
                <g transform="translate(2.4000000000000004 0.0)">
                    <g clip-path="url(#i1)">
                        <polygon points="0,0 11.2,0 11.2,16 0,16 0,0" stroke="none" fill="#000000"></polygon>
                    </g>
                </g>
                <g transform="translate(6.133333333333333 3.466666666666667)">
                    <g clip-path="url(#i2)">
                        <polygon points="0,0 3.73333333,0 3.73333333,3.73333333 0,3.73333333 0,0" stroke="none"></polygon>
                    </g>
                </g>
            </g>
        </g>
    </g>
</svg>