<svg viewBox="0 0 18 18" xmlns="http://www.w3.org/2000/svg">
    <path d="M7.38213132,0 C8.40904198,0 9.36813778,0.190298507 10.2594187,0.570895522 C11.1506997,0.951492537 11.9354144,1.47601279 12.613563,2.14445629 C13.2917115,2.81289979 13.8213132,3.59008529 14.2023681,4.47601279 C14.583423,5.3619403 14.7739505,6.31023454 14.7739505,7.32089552 C14.7739505,8.12686567 14.6480086,8.89605544 14.3961249,9.62846482 C14.1442411,10.3608742 13.7890205,11.0277186 13.3304629,11.6289979 L17.6609257,15.9275053 C17.7707212,16.0490405 17.8546825,16.1833689 17.9128095,16.3304904 C17.9709365,16.4776119 18,16.6279318 18,16.7814499 C18,17.0181237 17.9483315,17.2276119 17.8449946,17.4099147 C17.7416577,17.5922175 17.5995694,17.7361407 17.4187298,17.8416844 C17.2378902,17.9472281 17.0312164,18 16.7987083,18 C16.6372443,18 16.4790097,17.9728145 16.3240043,17.9184435 C16.1689989,17.8640725 16.0301399,17.7793177 15.9074273,17.6641791 L11.5575888,13.336887 C10.9634015,13.7462687 10.3143165,14.0660981 9.61033369,14.2963753 C8.90635091,14.5266525 8.16361679,14.641791 7.38213132,14.641791 C6.36167922,14.641791 5.4058127,14.4530917 4.51453175,14.075693 C3.62325081,13.6982942 2.83853606,13.173774 2.16038751,12.5021322 C1.48223897,11.8304904 0.952637244,11.0517058 0.571582347,10.1657783 C0.190527449,9.27985075 0,8.3315565 0,7.32089552 C0,6.31023454 0.190527449,5.3619403 0.571582347,4.47601279 C0.952637244,3.59008529 1.48223897,2.81289979 2.16038751,2.14445629 C2.83853606,1.47601279 3.62325081,0.951492537 4.51453175,0.570895522 C5.4058127,0.190298507 6.36167922,0 7.38213132,0 Z M7.38213132,1.75586354 C6.60710441,1.75586354 5.88051668,1.89978678 5.20236814,2.18763326 C4.52421959,2.47547974 3.92680301,2.87366738 3.41011841,3.38219616 C2.8934338,3.89072495 2.48977395,4.48240938 2.19913886,5.15724947 C1.90850377,5.83208955 1.76318622,6.5533049 1.76318622,7.32089552 C1.76318622,8.08848614 1.90850377,8.80970149 2.19913886,9.48454158 C2.48977395,10.1593817 2.8934338,10.7510661 3.41011841,11.2595949 C3.92680301,11.7681237 4.52421959,12.1663113 5.20236814,12.4541578 C5.88051668,12.7420043 6.60710441,12.8859275 7.38213132,12.8859275 C8.16361679,12.8859275 8.8934338,12.7420043 9.57158235,12.4541578 C10.2497309,12.1663113 10.8455328,11.7681237 11.3589882,11.2595949 C11.8724435,10.7510661 12.2744887,10.1593817 12.5651238,9.48454158 C12.8557589,8.80970149 13.0010764,8.08848614 13.0010764,7.32089552 C13.0010764,6.5533049 12.8557589,5.83208955 12.5651238,5.15724947 C12.2744887,4.48240938 11.8724435,3.89072495 11.3589882,3.38219616 C10.8455328,2.87366738 10.2497309,2.47547974 9.57158235,2.18763326 C8.8934338,1.89978678 8.16361679,1.75586354 7.38213132,1.75586354 Z"></path>
</svg>