<svg viewBox="0 0 18 18" xmlns="http://www.w3.org/2000/svg">
    <path d="M4.50231601,10.0144107 L8.99536799,10.0144107 C9.18064848,10.0144107 9.3365929,9.95110654 9.46320124,9.8244982 C9.58980957,9.69788986 9.65311374,9.54194545 9.65311374,9.35666495 L9.65311374,3.53885744 C9.65311374,3.35975296 9.58980957,3.20689655 9.46320124,3.08028821 C9.3365929,2.95367988 9.18064848,2.89037571 8.99536799,2.89037571 C8.81626351,2.89037571 8.6634071,2.95367988 8.53679876,3.08028821 C8.41019043,3.20689655 8.34688626,3.35975296 8.34688626,3.53885744 L8.34688626,8.70818322 L4.50231601,8.70818322 C4.3108595,8.70818322 4.15337108,8.77148739 4.02985075,8.89809573 C3.90633042,9.02470407 3.84457025,9.17756047 3.84457025,9.35666495 C3.84457025,9.54194545 3.90633042,9.69788986 4.02985075,9.8244982 C4.15337108,9.95110654 4.3108595,10.0144107 4.50231601,10.0144107 Z M9.00463201,18 C10.2336593,18 11.3916624,17.7637674 12.4786413,17.2913021 C13.5656202,16.8188369 14.5229027,16.1688111 15.3504889,15.3412249 C16.1780751,14.5136387 16.8265569,13.5579002 17.2959341,12.4740093 C17.7653114,11.3901184 18,10.2305713 18,8.99536799 C18,7.76634071 17.7637674,6.60833762 17.2913021,5.52135872 C16.8188369,4.43437983 16.1688111,3.47555327 15.3412249,2.64487905 C14.5136387,1.81420484 13.5563562,1.16572311 12.4693773,0.699433865 C11.3823984,0.233144622 10.2243953,0 8.99536799,0 C7.76634071,0 6.60988163,0.233144622 5.52599074,0.699433865 C4.44209985,1.16572311 3.48481729,1.81420484 2.65414308,2.64487905 C1.82346886,3.47555327 1.17344313,4.43437983 0.704065878,5.52135872 C0.234688626,6.60833762 0,7.76634071 0,8.99536799 C0,10.2305713 0.23623263,11.3901184 0.70869789,12.4740093 C1.18116315,13.5579002 1.83118888,14.5136387 2.65877509,15.3412249 C3.4863613,16.1688111 4.44209985,16.8188369 5.52599074,17.2913021 C6.60988163,17.7637674 7.76942872,18 9.00463201,18 Z M9.00463201,16.3510036 C7.98558929,16.3510036 7.03139475,16.1610911 6.14204838,15.7812661 C5.25270201,15.4014411 4.47143592,14.8749357 3.79825013,14.2017499 C3.12506433,13.5285641 2.60010293,12.747298 2.22336593,11.8579516 C1.84662892,10.9686052 1.65826042,10.0144107 1.65826042,8.99536799 C1.65826042,7.97632527 1.84662892,7.02213073 2.22336593,6.13278435 C2.60010293,5.24343798 3.12506433,4.4621719 3.79825013,3.7889861 C4.47143592,3.11580031 5.251158,2.59083891 6.13741637,2.2141019 C7.02367473,1.8373649 7.97632527,1.6489964 8.99536799,1.6489964 C10.0144107,1.6489964 10.9686052,1.8373649 11.8579516,2.2141019 C12.747298,2.59083891 13.5285641,3.11580031 14.2017499,3.7889861 C14.8749357,4.4621719 15.4014411,5.24343798 15.7812661,6.13278435 C16.1610911,7.02213073 16.3510036,7.97632527 16.3510036,8.99536799 C16.3571796,10.0144107 16.1703551,10.9686052 15.7905301,11.8579516 C15.4107051,12.747298 14.8857437,13.5285641 14.2156459,14.2017499 C13.5455481,14.8749357 12.764282,15.4014411 11.8718477,15.7812661 C10.9794133,16.1610911 10.0236747,16.3510036 9.00463201,16.3510036 Z"></path>
</svg>