<?xml version="1.0" encoding="UTF-8"?><svg version="1.1" width="60px" height="60px" viewBox="0 0 60.0 60.0" xmlns="http://www.w3.org/2000/svg" xmlns:xlink="http://www.w3.org/1999/xlink"><defs><clipPath id="i0"><path d="M1920,0 L1920,2221 L0,2221 L0,0 L1920,0 Z"></path></clipPath><clipPath id="i1"><path d="M50,0 C54.418278,0 58,3.581722 58,8 L58,38.3320945 C58,40.0949402 57.3057708,41.7868721 56.0675803,43.0416667 C54.8311641,44.2946632 53.1442415,45 51.3839218,45 L6.61607817,45 C4.85575845,45 3.16883591,44.2946632 1.93241966,43.0416667 C0.69422916,41.7868721 0,40.0949402 0,38.3320945 L0,8 C0,3.581722 3.581722,0 8,0 L50,0 Z M15.1041894,21 L2,21 L2,38.3320945 C2,39.5691216 2.48715565,40.7563868 3.35602077,41.6369034 C4.1592537,42.4509076 5.23564495,42.9328459 6.37178324,42.9934865 L6.61607817,43 L51.3839218,43 C52.6091912,43 53.7833725,42.5090508 54.6439792,41.6369034 C55.45492,40.8150879 55.9333494,39.7260603 55.9935358,38.5787603 L56,38.3320945 L56,21 L41.1984354,21 C40.0601846,21 38.9639885,21.4282948 38.1185486,22.1991852 L37.9412971,22.3695886 L35.151862,25.19643 C31.8252585,28.5676431 26.4623728,28.6350673 23.054318,25.3987027 L22.848138,25.19643 L21.2589284,23.5859091 C19.6984394,22.004494 17.6105932,21.0859748 15.418073,21.0057405 L15.1041894,21 Z M35.2234336,13 L22.7552593,13.0003963 C22.4254004,13.0033799 21.960212,13.0287412 21.5004919,13.2435705 C21.0181477,13.4689735 20.6171248,13.8371999 20.3507462,14.2978368 C20.0843676,14.758395 19.9652168,15.2895785 20.0087875,15.8197396 C20.0562118,16.3962239 20.3273093,16.8429402 20.5026142,17.1318115 C20.5048164,17.1355079 20.5070185,17.1391257 20.5092206,17.1427435 L24.372,23.89 L24.4565177,23.972003 C25.2634131,24.7302819 26.210017,25.249572 27.208265,25.5298734 L22.244793,16.3174435 C22.2409425,16.3103218 22.237015,16.3032 22.2330105,16.2961601 C22.0413346,15.9601277 22.0088367,15.8632063 22.0022909,15.7784819 C21.9908936,15.630644 22.0222363,15.4829699 22.0915446,15.3555149 C22.1608529,15.2281419 22.2645073,15.1273731 22.3879531,15.0661423 C22.4772068,15.0217746 22.6048881,15 22.9374909,15 L28,15 L28.0000262,25.7006835 C28.6629753,25.8017429 29.3380353,25.8016921 30.0009722,25.7005312 L30,15 L35.1562897,15 C35.3846213,15 35.5270879,15.0324373 35.6663201,15.1011424 C35.699742,15.1176055 35.7233838,15.1353727 35.7541104,15.1685434 C35.7899195,15.2073378 35.8327365,15.2639808 35.9030457,15.3709912 C35.9700435,15.5079124 36,15.6407585 36,15.7937353 C36,15.9823279 35.9549498,16.1670085 35.888491,16.2948016 L30.8127959,25.523922 C31.8804899,25.2203017 32.888308,24.6428833 33.7282609,23.7916667 L33.775,23.744 L37.630672,17.1200144 C37.6331101,17.1157675 37.6355481,17.1115992 37.6379076,17.1072736 C37.8883208,16.6615796 38,16.1502153 38,15.6808485 C38,15.1868652 37.8768382,14.727644 37.6379076,14.3023197 C37.6242229,14.277939 37.6094372,14.2541089 37.5936291,14.2309866 C37.3904043,13.9337787 37.1003529,13.5318913 36.5533605,13.2769169 C36.0970485,13.0641761 35.6603984,13 35.2234336,13 Z M50,2 L8,2 C4.76160306,2 2.12242824,4.56557489 2.00413847,7.77506174 L2,8 L2,19 L10.9666918,19.0003638 C13.4784402,11.4470217 20.60311,6 29,6 C37.39689,6 44.5215598,11.4470217 47.0333082,19.0003638 L56,19 L56,8 C56,4.76160306 53.4344251,2.12242824 50.2249383,2.00413847 L50,2 Z"></path></clipPath></defs><g transform="translate(-1627.0 -1557.0)"><g clip-path="url(#i0)"><g transform="translate(1627.0 1557.0)"><g transform="translate(1.0 8.0)"><g clip-path="url(#i1)"><polygon points="0,0 58,0 58,45 0,45 0,0" stroke="none" fill="#06A0EC"></polygon></g></g></g></g></g></svg>