<?xml version="1.0" encoding="UTF-8"?><svg version="1.1" width="41px" height="41px" viewBox="0 0 41.0 41.0" xmlns="http://www.w3.org/2000/svg" xmlns:xlink="http://www.w3.org/1999/xlink"><defs><clipPath id="i0"><path d="M23.6180285,0 C23.6884986,0 23.7582359,0.0147464742 23.8225994,0.0433933133 L31.3907432,3.41622622 C31.4791666,3.45550986 31.5540335,3.51945154 31.606428,3.60019453 L35.9202468,10.2477117 C36.0383483,10.4298669 36.024181,10.6670192 35.8850728,10.8338236 L18.3849234,31.820232 C18.1849935,32.0599227 17.8149341,32.0599227 17.6151264,31.820232 L0.114976899,10.8338236 C-0.0241312683,10.6670192 -0.0384206938,10.4298669 0.079802929,10.2477117 L4.39349958,3.60019453 C4.44601627,3.51945154 4.52088309,3.45550986 4.60906228,3.41622622 L12.1774504,0.0433933133 C12.2416917,0.0147464742 12.311429,0 12.3818991,0 L23.6180285,0 Z"></path></clipPath><linearGradient id="i1" x1="-7.12955138e-05px" y1="11.0476475px" x2="36.8998663px" y2="10.6650852px" gradientUnits="userSpaceOnUse"><stop stop-color="#9889FE" offset="0%"></stop><stop stop-color="#68A3F1" offset="49.5027%"></stop><stop stop-color="#61A8EA" offset="100%"></stop></linearGradient><clipPath id="i2"><path d="M23.6180285,0 C23.6884986,0 23.7582359,0.0147464742 23.8225994,0.0433933133 L31.3907432,3.41622622 C31.4791666,3.45550986 31.5540335,3.51945154 31.606428,3.60019453 L35.9202468,10.2477117 C36.0383483,10.4298669 36.024181,10.6670192 35.8850728,10.8338236 L0.114976899,10.8338236 C-0.0241312683,10.6670192 -0.0384206938,10.4298669 0.079802929,10.2477117 L4.39349958,3.60019453 C4.44601627,3.51945154 4.52088309,3.45550986 4.60906228,3.41622622 L12.1774504,0.0433933133 C12.2416917,0.0147464742 12.311429,0 12.3818991,0 L23.6180285,0 Z"></path></clipPath><linearGradient id="i3" x1="4.37139371px" y1="3.42855524px" x2="30.9856319px" y2="3.3010345px" gradientUnits="userSpaceOnUse"><stop stop-color="#B69EFD" offset="0%"></stop><stop stop-color="#9BB7FC" offset="100%"></stop></linearGradient><clipPath id="i4"><path d="M6.82741422,0 L13.6549506,8.92874835 L0,8.92874835 L6.82741422,0 Z"></path></clipPath><clipPath id="i5"><path d="M13.6549506,0 L9.14132409,13.7995571 L7.22116727,16.2226929 C7.01879481,16.4782179 6.62894997,16.4832945 6.41973813,16.233088 L4.38416672,13.7995571 L0,0 L13.6549506,0 Z"></path></clipPath><linearGradient id="i6" x1="6.82741422px" y1="0px" x2="6.82741422px" y2="16.4175398px" gradientUnits="userSpaceOnUse"><stop stop-color="#B3C9FA" offset="0%"></stop><stop stop-color="#A3D2F6" offset="100%"></stop></linearGradient><clipPath id="i7"><path d="M0,0 L12.1033876,1.77344483 L5.2758513,10.7023141 L0,0 Z"></path></clipPath><clipPath id="i8"><path d="M5.78147712,0 L11.0573284,10.7023141 L0,6.00241934 L5.78147712,0 Z"></path></clipPath><clipPath id="i9"><path d="M12.1032655,0 L6.82741422,10.7023141 L0,1.77344483 L12.1032655,0 Z"></path></clipPath><clipPath id="i10"><path d="M5.2758513,0 L11.0572063,6.00241934 L0,10.7023141 L5.2758513,0 Z"></path></clipPath><clipPath id="i11"><path d="M1.30351315,0 C1.32793951,0.0124498921 1.39938664,0.0430306951 1.47156656,0.131267794 C1.50637414,0.173739453 1.90897984,0.75944153 2.48005522,1.61220767 L2.71699793,1.96690293 C3.65609866,3.37614913 4.92880451,5.32671958 5.81652896,6.82302437 C5.9582019,7.06162715 5.88614411,7.28403299 5.78135499,7.40901541 L0,1.40659606 L1.30351315,0 Z"></path></clipPath><clipPath id="i12"><path d="M4.59204376,0 L5.89543478,1.40659606 L0.114201919,7.40901541 C0.00941279913,7.28403299 -0.0626449875,7.06162715 0.0789058171,6.82302437 C0.426303734,6.2375138 0.832637288,5.58244648 1.2548557,4.91747435 L1.6807746,4.25140995 C2.91729098,2.33045094 4.16661465,0.492774828 4.39080264,0.17657413 L4.42386822,0.131267794 C4.49617027,0.0430306951 4.56749526,0.0124498921 4.59204376,0 Z"></path></clipPath><clipPath id="i13"><path d="M0.754991434,0.0105062881 L2.826836,1.5414804 C3.4351747,1.99100612 4.24478668,2.07283696 4.93263321,1.75421642 L7.27548833,0.669262715 C7.32397467,0.646780386 7.3705069,0.703348828 7.33850836,0.745654286 L5.78828889,2.79190888 C5.33310352,3.39276727 5.25029813,4.19234044 5.57284833,4.8717661 L6.67142424,7.18563294 C6.69414076,7.23349855 6.63698306,7.27955106 6.59399265,7.24788241 L4.52214809,5.71678742 C3.91393152,5.2672617 3.10419741,5.18543086 2.41635088,5.5040514 L0.0736178888,6.58900511 C0.0251315477,6.61148743 -0.0215228159,6.55503987 0.0105978585,6.51261353 L1.56081733,4.46635894 C2.01588057,3.86562142 2.09880809,3.06592738 1.77613576,2.38662259 L0.677559846,0.0726348759 C0.654843323,0.0247692712 0.712123157,-0.0212832423 0.754991434,0.0105062881 Z"></path></clipPath></defs><g transform="translate(3.0 5.0)"><g transform=""><g clip-path="url(#i0)"><polygon points="5.55111512e-16,0 36,0 36,32 5.55111512e-16,32 5.55111512e-16,0" stroke="none" fill="url(#i1)"></polygon></g></g><g transform=""><g clip-path="url(#i2)"><polygon points="5.55111512e-16,0 36,0 36,10.8338236 5.55111512e-16,10.8338236 5.55111512e-16,0" stroke="none" fill="url(#i3)"></polygon></g></g><g transform="translate(11.172915979209098 6.6049699470709715)"><g clip-path="url(#i4)"><polygon points="0,0 13.6549506,0 13.6549506,8.92874835 0,8.92874835 0,0" stroke="none" fill="#95B0FF"></polygon></g></g><g transform="translate(11.172915979209098 15.534080918632819)"><g clip-path="url(#i5)"><polygon points="0,0 13.6549506,0 13.6549506,16.4175841 0,16.4175841 0,0" stroke="none" fill="url(#i6)"></polygon></g></g><g transform="translate(5.896942549381452 4.831404248487919)"><g clip-path="url(#i7)"><polygon points="0,0 12.1033876,0 12.1033876,10.7023141 0,10.7023141 0,0" stroke="none" fill="#D7D6FC"></polygon></g></g><g transform="translate(0.11485476752995893 4.831404248487919)"><g clip-path="url(#i8)"><polygon points="0,0 11.0573284,0 11.0573284,10.7023141 0,10.7023141 0,0" stroke="none" fill="#BDB3F9"></polygon></g></g><g transform="translate(17.99984166684743 4.831404248487919)"><g clip-path="url(#i9)"><polygon points="0,0 12.1032655,0 12.1032655,10.7023141 0,10.7023141 0,0" stroke="none" fill="#6E97FF"></polygon></g></g><g transform="translate(24.82798867290323 4.831404248487919)"><g clip-path="url(#i10)"><polygon points="0,0 11.0572063,0 11.0572063,10.7023141 0,10.7023141 0,0" stroke="none" fill="#A3CCFA"></polygon></g></g><g transform="translate(30.103595707205628 3.425533421784484)"><g clip-path="url(#i11)"><polygon points="0,0 5.89553035,0 5.89553035,7.40901541 0,7.40901541 0,0" stroke="none" fill="#799FF0"></polygon></g></g><g transform="translate(0.0008971119031575547 3.425533421784484)"><g clip-path="url(#i12)"><polygon points="3.33066907e-16,0 5.89543478,0 5.89543478,7.40901541 3.33066907e-16,7.40901541 3.33066907e-16,0" stroke="none" fill="#B28DFF"></polygon></g></g><g transform="translate(7.826775391900917 10.777627408528549)"><g clip-path="url(#i13)"><polygon points="-1.79023463e-15,1.36002321e-15 7.3490563,1.36002321e-15 7.3490563,7.25832306 -1.79023463e-15,7.25832306 -1.79023463e-15,1.36002321e-15" stroke="none" fill="#FFFFFF"></polygon></g></g></g></svg>