<?xml version="1.0" encoding="UTF-8"?><svg version="1.1" width="41px" height="41px" viewBox="0 0 41.0 41.0" xmlns="http://www.w3.org/2000/svg" xmlns:xlink="http://www.w3.org/1999/xlink"><defs><clipPath id="i0"><path d="M18.5,0 L37,6.66666667 L18.5,14 L0,6.66666667 L18.5,0 Z"></path></clipPath><clipPath id="i1"><path d="M18.5,0 L0,28.3333333 L0,7.08333333 L18.5,0 Z"></path></clipPath><clipPath id="i2"><path d="M0,0 L18.5,7.08333333 L18.5,28.3333333 L0,0 Z"></path></clipPath></defs><g transform="translate(2.0 3.0)"><g clip-path="url(#i0)"><polygon points="0,0 37,0 37,14 0,14 0,0" stroke="none" fill="#44AEF5"></polygon></g><g transform="translate(18.5 6.666666666666668)"><g clip-path="url(#i1)"><polygon points="0,0 18.5,0 18.5,28.3333333 0,28.3333333 0,0" stroke="none" fill="#44AEF5" opacity="60%"></polygon></g></g><g transform="translate(0.0 6.666666666666668)"><g clip-path="url(#i2)"><polygon points="0,0 18.5,0 18.5,28.3333333 0,28.3333333 0,0" stroke="none" fill="#44AEF5" opacity="80%"></polygon></g></g></g></svg>