<?xml version="1.0" encoding="UTF-8"?><svg version="1.1" width="41px" height="41px" viewBox="0 0 41.0 41.0" xmlns="http://www.w3.org/2000/svg" xmlns:xlink="http://www.w3.org/1999/xlink"><defs><clipPath id="i0"><path d="M20.5,0 C31.8218374,0 41,9.17816263 41,20.5 C41,31.8218374 31.8218374,41 20.5,41 C9.17816263,41 0,31.8218374 0,20.5 C0,9.17816263 9.17816263,0 20.5,0 Z"></path></clipPath><clipPath id="i1"><path d="M14.3776873,0 C14.7903762,0 15.202768,0.0606107888 15.6337293,0.261532582 C16.1503333,0.502341623 16.4242707,0.881901832 16.6162053,1.16259812 C16.6311351,1.18443583 16.6450994,1.20694204 16.6580238,1.2299682 C16.8836806,1.63166323 17,2.06537205 17,2.53191171 C17,2.97520238 16.8945252,3.45815747 16.6580238,3.87909048 C16.6557955,3.88317577 16.6534928,3.8871125 16.6511902,3.8911235 L9.28146955,16.5506821 C9.11894915,16.8298928 8.8198314,17.0011034 8.49679611,17 C8.17376082,16.9988751 7.87583152,16.8254361 7.71531663,16.5451112 L0.480930578,3.91258983 L0.474691221,3.90226519 C0.309125423,3.62944237 0.0530889456,3.20754374 0.00829927465,2.66308653 C-0.0328507713,2.16237902 0.0796804915,1.6607059 0.331260285,1.22573436 C0.582840078,0.790688537 0.961583912,0.442919281 1.41713126,0.230038741 C1.84452723,0.0303146791 2.27692767,0.00398431445 2.5874931,0.000522411751 L14.3776873,0 Z M7.62068966,1.75862069 L2.67456006,1.75862069 C2.34960328,1.75862069 2.2248572,1.778831 2.13765532,1.8200114 C2.01704737,1.87684339 1.91577582,1.97037305 1.84806082,2.08859575 C1.78034582,2.20689443 1.74972359,2.34395983 1.76085894,2.48117718 C1.76725425,2.55981504 1.79900506,2.6497737 1.98627467,2.96166586 C1.99018709,2.96820002 1.99402427,2.97481015 1.99778622,2.98142029 L7.62068966,12.8965517 L7.62068966,1.75862069 Z M14.4170647,1.75862069 L9.37931034,1.75862069 L9.37931034,12.8965517 L15.1324337,2.96040495 C15.1973647,2.84179239 15.2413793,2.67037909 15.2413793,2.49533479 C15.2413793,2.35334769 15.2121115,2.23004509 15.1466538,2.10296021 C15.077961,2.00363732 15.0361283,1.95106351 15.0011423,1.91505613 C14.9711221,1.8842683 14.9480238,1.86777753 14.9153702,1.85249708 C14.7793388,1.7887277 14.6401473,1.75862069 14.4170647,1.75862069 Z"></path></clipPath></defs><g clip-path="url(#i0)"><polygon points="0,0 41,0 41,41 0,41 0,0" stroke="none" fill="#06A0EC"></polygon></g><g transform="translate(12.0 13.000000000000002)"><g clip-path="url(#i1)"><polygon points="0,0 17,0 17,17.0000053 0,17.0000053 0,0" stroke="none" fill="#FFFFFF"></polygon></g></g></svg>