<svg width="36" height="22" xmlns="http://www.w3.org/2000/svg"><defs><clipPath id="a"><path d="M1920 0v1333H0V0h1920Z"/></clipPath><clipPath id="b"><path d="M11.56.44a1.5 1.5 0 0 1 .104 2.007l-.103.114L5.12 9h29.387C35.33 9 36 9.672 36 10.5c0 .78-.592 1.42-1.35 1.493l-.143.007H5.12l6.44 6.44a1.5 1.5 0 0 1 .104 2.007l-.103.114a1.5 1.5 0 0 1-2.008.103l-.114-.103-9-9a1.5 1.5 0 0 1-.103-2.008L.44 9.44l9-9a1.5 1.5 0 0 1 2.122 0Z"/></clipPath></defs><g clip-path="url(#a)" transform="translate(-268 -1186)"><g clip-path="url(#b)" transform="translate(268 1186.5)"><path d="M0 0h36v21H0V0z"/></g></g></svg>