<svg width="15" height="17" xmlns="http://www.w3.org/2000/svg"><defs><clipPath id="a"><path d="M1920 0v2221H0V0h1920Z"/></clipPath><clipPath id="b"><path d="M8.617 0c.594 0 1.059.156 1.395.469.336.312.504.745.504 1.297l-.001 1.109h3.329c.133 0 .25.038.352.112l.074.064a.58.58 0 0 1 .175.426.599.599 0 0 1-.601.617h-.852l-.5 10.687c-.031.552-.215.99-.55 1.313-.337.323-.778.484-1.325.484H3.828c-.547 0-.988-.16-1.324-.48-.336-.32-.52-.757-.55-1.309l-.5-10.695H.601a.584.584 0 0 1-.422-.176.592.592 0 0 1-.18-.441c0-.167.06-.309.18-.426a.584.584 0 0 1 .422-.176H3.92v-1.11c0-.49.134-.886.399-1.188L4.426.47C4.762.156 5.224 0 5.812 0Zm3.086 4.094H2.711l.508 10.523a.77.77 0 0 0 .222.528.705.705 0 0 0 .52.207h6.516a.72.72 0 0 0 .527-.204.765.765 0 0 0 .223-.53l.476-10.524Zm-6.89 1.289c.14 0 .255.041.343.125a.464.464 0 0 1 .14.336l.227 7.82a.413.413 0 0 1-.128.332.497.497 0 0 1-.356.129.478.478 0 0 1-.348-.125.472.472 0 0 1-.136-.336l-.227-7.812a.46.46 0 0 1 .129-.34.48.48 0 0 1 .356-.13Zm2.414 0c.145 0 .264.043.355.129a.436.436 0 0 1 .137.332v7.82c0 .14-.046.253-.137.336a.506.506 0 0 1-.355.125.52.52 0 0 1-.36-.125.427.427 0 0 1-.14-.336v-7.82a.43.43 0 0 1 .14-.332.511.511 0 0 1 .36-.13Zm2.406 0a.48.48 0 0 1 .355.129.46.46 0 0 1 .13.34l-.227 7.82a.463.463 0 0 1-.137.328.478.478 0 0 1-.348.125.483.483 0 0 1-.351-.129.442.442 0 0 1-.133-.332l.226-7.812a.474.474 0 0 1 .141-.344.481.481 0 0 1 .344-.125ZM8.53 1.172H5.898a.72.72 0 0 0-.507.18.617.617 0 0 0-.196.476v1.047h4.039V1.828a.645.645 0 0 0-.122-.4l-.069-.076c-.128-.12-.298-.18-.512-.18Z"/></clipPath></defs><g clip-path="url(#a)" transform="translate(-1337 -1665)"><g clip-path="url(#b)" transform="translate(1337 1665)"><path fill="#777" d="M0 0h14.445v16.578H0V0z"/></g></g></svg>