<svg width="41" height="41" xmlns="http://www.w3.org/2000/svg"><defs><clipPath id="a"><path d="M20.5 0C31.822 0 41 9.178 41 20.5S31.822 41 20.5 41 0 31.822 0 20.5 9.178 0 20.5 0Z"/></clipPath><clipPath id="b"><path d="M14.378 0c.412 0 .825.06 1.256.262.516.24.79.62.982.9A2.617 2.617 0 0 1 17 2.533c0 .443-.105.926-.342 1.347l-.007.012-7.37 12.66a.904.904 0 0 1-1.566-.006L.481 3.913l-.006-.01c-.166-.274-.422-.695-.467-1.24A2.468 2.468 0 0 1 1.418.23c.427-.2.859-.226 1.17-.23h11.79ZM7.62 1.759H2.675c-.325 0-.45.02-.537.061a.657.657 0 0 0-.29.269.68.68 0 0 0-.087.392c.006.079.038.169.225.48l.012.02 5.623 9.916V1.759Zm6.796 0H9.38v11.138l5.753-9.937a1.01 1.01 0 0 0 .11-.465.822.822 0 0 0-.095-.392A1.48 1.48 0 0 0 15 1.915a.269.269 0 0 0-.086-.063 1.09 1.09 0 0 0-.498-.093Z"/></clipPath></defs><g clip-path="url(#a)"><path fill="#06A0EC" d="M0 0h41v41H0V0z"/></g><g clip-path="url(#b)" transform="translate(12 13)"><path fill="#FFF" d="M0 0h17v17H0V0z"/></g></svg>