<?xml version="1.0" encoding="UTF-8"?>
<svg width="20px" height="19px" viewBox="0 0 20 19" version="1.1" xmlns="http://www.w3.org/2000/svg" xmlns:xlink="http://www.w3.org/1999/xlink">
    <title>icon/project/comment</title>
    <g id="⎋-Style-guide" stroke="none" stroke-width="1" fill="none" fill-rule="evenodd">
        <g id="Style-guide" transform="translate(-932.000000, -122.000000)">
            <g id="icon/project/comment" transform="translate(932.000000, 121.000000)">
                <rect id="icon_area" x="0" y="0" width="20" height="20"></rect>
                <g id="􀌪" transform="translate(0.000000, 1.000000)" fill="#000000" fill-rule="nonzero">
                    <path d="M5.6432329,19 C5.88554121,19 6.10712578,18.9375 6.30798661,18.8125 C6.50884744,18.6875 6.75912641,18.4967949 7.05882353,18.2403846 L10.167384,15.4615385 L15.8010521,15.4615385 C16.7001435,15.4615385 17.4621393,15.2964744 18.0870397,14.9663462 C18.7119401,14.6362179 19.1869919,14.1570513 19.5121951,13.5288462 C19.8373984,12.900641 20,12.1378205 20,11.2403846 L20,4.23076923 C20,3.33333333 19.8373984,2.57051282 19.5121951,1.94230769 C19.1869919,1.31410256 18.7119401,0.833333333 18.0870397,0.5 C17.4621393,0.166666667 16.7001435,0 15.8010521,0 L4.19894787,0 C3.29985653,0 2.53786067,0.165064103 1.91296031,0.495192308 C1.28805994,0.825320513 0.81300813,1.30608974 0.487804878,1.9375 C0.162601626,2.56891026 0,3.33333333 0,4.23076923 L0,11.2403846 C0,12.1378205 0.16419576,12.9022436 0.492587279,13.5336538 C0.820978798,14.1650641 1.29603061,14.6442308 1.91774271,14.9711538 C2.53945481,15.2980769 3.29029173,15.4615385 4.17025347,15.4615385 L4.57197513,15.4615385 L4.57197513,17.7692308 C4.57197513,18.1410256 4.66443488,18.4391026 4.84935438,18.6634615 C5.03427387,18.8878205 5.29890005,19 5.6432329,19 Z M6.05451937,17.1538462 L6.05451937,14.5480769 C6.05451937,14.2852564 5.99872469,14.099359 5.88713534,13.9903846 C5.77554599,13.8814103 5.59222063,13.8269231 5.33715925,13.8269231 L4.23720708,13.8269231 C3.3508688,13.8269231 2.6956799,13.6057692 2.27164036,13.1634615 C1.84760083,12.7211538 1.63558106,12.0705128 1.63558106,11.2115385 L1.63558106,4.25961538 C1.63558106,3.40064103 1.84760083,2.75 2.27164036,2.30769231 C2.6956799,1.86538462 3.3508688,1.64423077 4.23720708,1.64423077 L15.7627929,1.64423077 C16.6491312,1.64423077 17.3059142,1.86538462 17.733142,2.30769231 C18.1603698,2.75 18.3739837,3.40064103 18.3739837,4.25961538 L18.3739837,11.2115385 C18.3739837,12.0705128 18.1603698,12.7211538 17.733142,13.1634615 C17.3059142,13.6057692 16.6491312,13.8269231 15.7627929,13.8269231 L10.0908656,13.8269231 C9.82305117,13.8269231 9.60784314,13.8557692 9.44524151,13.9134615 C9.28263989,13.9711538 9.11206759,14.0961538 8.93352463,14.2884615 L6.05451937,17.1538462 Z" id="Shape"></path>
                </g>
            </g>
        </g>
    </g>
</svg>