<?xml version="1.0" encoding="UTF-8"?>
<svg width="12px" height="16px" viewBox="0 0 12 16" version="1.1" xmlns="http://www.w3.org/2000/svg" xmlns:xlink="http://www.w3.org/1999/xlink">
    <title>icon/project/map</title>
    <g id="⎋-Style-guide" stroke="none" stroke-width="1" fill="none" fill-rule="evenodd">
        <g id="Style-guide" transform="translate(-1294.000000, -121.000000)">
            <g id="Group" transform="translate(1292.000000, 121.000000)">
                <rect id="Rectangle-Copy-5" x="0" y="0" width="16" height="16"></rect>
                <path d="M8,0 C11.0927946,0 13.6,2.5072054 13.6,5.6 C13.6,6.09484714 13.5139715,6.69758319 13.3602705,7.36101562 L13.2994964,7.61255575 C13.1504557,8.20569124 12.95136,8.84078093 12.7145065,9.48620949 L12.610722,9.76336255 C12.5753805,9.85589646 12.5393043,9.94854918 12.5025292,10.0412286 L12.3901432,10.3192545 C12.3138693,10.5045355 12.2349433,10.6895544 12.1536521,10.8735739 L12.0299773,11.1487613 C11.9881849,11.2401791 11.9458371,11.3312549 11.9029697,11.4218965 L11.7728444,11.6924264 C10.6322039,14.0241317 9.16454571,16 8,16 C6.83545429,16 5.36779612,14.0241317 4.2271556,11.6924264 L4.09703035,11.4218965 C4.05416292,11.3312549 4.0118151,11.2401791 3.97002273,11.1487613 L3.84634786,10.8735739 C3.76505666,10.6895544 3.68613069,10.5045355 3.60985678,10.3192545 L3.4974708,10.0412286 C3.46069572,9.94854918 3.42461951,9.85589646 3.38927801,9.76336255 L3.28549351,9.48620949 C3.04864001,8.84078093 2.84954433,8.20569124 2.70050362,7.61255575 L2.63972947,7.36101562 C2.48602852,6.69758319 2.4,6.09484714 2.4,5.6 C2.4,2.5072054 4.9072054,0 8,0 Z M8,1.33333333 C5.64358507,1.33333333 3.73333333,3.24358507 3.73333333,5.6 C3.73333333,6.49626439 4.11419275,7.97092957 4.72178618,9.51104655 L4.82813737,9.77561206 C4.84622316,9.81978126 4.86448685,9.86397997 4.88292484,9.90819622 L4.9956157,10.1736085 C5.01473653,10.217847 5.03402448,10.2620792 5.05347595,10.306293 L5.17211825,10.5712599 L5.29451249,10.835212 C5.37732096,11.0107142 5.46251568,11.1851572 5.54986661,11.3577751 C6.08679014,12.4188126 6.66074758,13.3231157 7.19161457,13.9411141 C7.44183021,14.2323977 7.67082132,14.4460899 7.86024475,14.5734254 C7.90264482,14.6019278 7.94016989,14.6241547 7.97206407,14.6405588 L8,14.6538667 L8.02793593,14.6405588 L8.07373196,14.6151964 C8.08189865,14.610381 8.09032682,14.6052681 8.09900817,14.5998528 L8.13975525,14.5734254 C8.32917868,14.4460899 8.55816979,14.2323977 8.80838543,13.9411141 C9.33925242,13.3231157 9.91320986,12.4188126 10.4501334,11.3577751 C10.5374843,11.1851572 10.622679,11.0107142 10.7054875,10.835212 L10.8278817,10.5712599 L10.946524,10.306293 C10.9659755,10.2620792 10.9852635,10.217847 11.0043843,10.1736085 L11.1170752,9.90819622 C11.1355132,9.86397997 11.1537768,9.81978126 11.1718626,9.77561206 L11.2782138,9.51104655 C11.8858072,7.97092957 12.2666667,6.49626439 12.2666667,5.6 C12.2666667,3.24358507 10.3564149,1.33333333 8,1.33333333 Z" id="Oval" fill="#000000" fill-rule="nonzero"></path>
                <path d="M8,3.46666667 C9.03093153,3.46666667 9.86666667,4.3024018 9.86666667,5.33333333 C9.86666667,6.36426487 9.03093153,7.2 8,7.2 C6.96906847,7.2 6.13333333,6.36426487 6.13333333,5.33333333 C6.13333333,4.3024018 6.96906847,3.46666667 8,3.46666667 Z M8,4.8 C7.70544813,4.8 7.46666667,5.03878147 7.46666667,5.33333333 C7.46666667,5.6278852 7.70544813,5.86666667 8,5.86666667 C8.29455187,5.86666667 8.53333333,5.6278852 8.53333333,5.33333333 C8.53333333,5.03878147 8.29455187,4.8 8,4.8 Z" id="Oval" fill="#000000" fill-rule="nonzero"></path>
            </g>
        </g>
    </g>
</svg>