<?xml version="1.0" encoding="UTF-8"?>
<svg width="13px" height="20px" viewBox="0 0 13 20" version="1.1" xmlns="http://www.w3.org/2000/svg" xmlns:xlink="http://www.w3.org/1999/xlink">
    <title>icon/project/project_info</title>
    <g id="⎋-Style-guide" stroke="none" stroke-width="1" fill="none" fill-rule="evenodd">
        <g id="Style-guide" transform="translate(-1116.000000, -121.000000)">
            <g id="icon/project/project_info" transform="translate(1112.000000, 121.000000)">
                <rect id="icon_area" x="0" y="0.13795794" width="20" height="20"></rect>
                <path d="M14.7144246,0.376635107 C14.9106451,0.622744118 14.9795413,0.94687505 14.9003864,1.25151692 L12.9982151,8.5701948 L15.6845831,10.3154776 C16.1477681,10.6162734 16.2794105,11.2356022 15.9786147,11.6987872 C15.9200757,11.7889292 15.8473872,11.8690444 15.7633469,11.936049 L6.83094064,19.0577789 C6.39910871,19.4020747 5.76993283,19.3311127 5.42563699,18.8992808 C5.22941641,18.6531718 5.16052026,18.3290408 5.23967512,18.024399 L7.14144276,10.7035392 L4.45547843,8.96043832 C3.99229346,8.65964249 3.86065106,8.04031368 4.1614469,7.57712872 C4.21998584,7.48698665 4.29267434,7.40687151 4.37671469,7.33986688 L13.3091209,0.218137006 C13.7409528,-0.12615884 14.3701287,-0.0551968231 14.7144246,0.376635107 Z M12.2100308,3.651 L6.70803077,8.038 L9.43973232,9.81080587 L7.92903077,15.623 L13.4310308,11.237 L10.6999594,9.46208591 L12.2100308,3.651 Z" id="Path" fill="#000000" fill-rule="nonzero"></path>
            </g>
        </g>
    </g>
</svg>