<?xml version="1.0" encoding="UTF-8"?>
<svg width="18px" height="18px" viewBox="0 0 18 18" version="1.1" xmlns="http://www.w3.org/2000/svg" xmlns:xlink="http://www.w3.org/1999/xlink">
    <title>icon/project/roadmap</title>
    <g id="⎋-Style-guide" stroke="none" stroke-width="1" fill="none" fill-rule="evenodd">
        <g id="Style-guide" transform="translate(-1053.000000, -122.000000)">
            <g id="icon/project/roadmap" transform="translate(1052.000000, 121.000000)">
                <rect id="icon_area" x="0" y="0" width="20" height="20"></rect>
                <path d="M10.8256239,1.98187084 L11.6886373,1.98596344 L12.4470224,2.00078805 L12.9022812,2.01750684 L13.3227321,2.04030567 L13.7130524,2.06970864 L14.0779194,2.10623984 L14.4220106,2.15042338 L14.7500034,2.20278336 L15.0665751,2.26384387 L15.2220397,2.29780061 L15.5302498,2.37289463 L15.6841647,2.41416293 L15.6841647,2.41416293 C17.8029131,2.99890712 19,4.33462376 19,6.5 C19,8.66537624 17.8029131,10.0010929 15.6841647,10.5858371 L15.5302498,10.6271054 L15.2220397,10.7021994 L15.0665751,10.7361561 L14.7500034,10.7972166 L14.4220106,10.8495766 L14.0779194,10.8937602 L13.7130524,10.9302914 L13.3227321,10.9596943 L12.9022812,10.9824932 L12.4470224,10.999212 L11.6886373,11.0140366 L10.8256239,11.0181292 L9.84219603,11.0132586 L8.40590513,11.0009365 L8,11 L8,10.9908708 L7.40200187,11.0083218 L6.90742073,11.0320641 L6.46205139,11.0646499 C5.82682286,11.1205595 5.33012143,11.2090049 4.84791471,11.3420871 C3.54094279,11.7027926 3,12.3063798 3,13.5 C3,14.6936202 3.54094279,15.2972074 4.84791471,15.6579129 C5.33012143,15.7909951 5.82682286,15.8794405 6.46205139,15.9353501 L6.90742073,15.9679359 L7.40200187,15.9916782 L7.95396157,16.0073739 L8.57146655,16.0158196 L9.49939788,16.0172221 L11.0000237,16.006887 C11.5093276,16.0033794 11.9317284,16.3838699 11.9924974,16.8773883 L12,17 L12,17 C12,17.5533195 11.5533287,18.0028658 11.0000206,18.0064159 L9.17437613,18.0181292 L8.31136275,18.0140366 L7.55297765,17.999212 L7.09771877,17.9824932 L6.67726788,17.9596943 L6.28694761,17.9302914 L5.92208056,17.8937602 L5.57798936,17.8495766 L5.24999661,17.7972166 L4.93342494,17.7361561 L4.77796033,17.7021994 L4.46975018,17.6271054 L4.31583529,17.5858371 C2.19708686,17.0010929 1,15.6653762 1,13.5 C1,11.3346238 2.19708686,9.99890712 4.31583529,9.41416293 L4.46975018,9.37289463 L4.77796033,9.29780061 L4.93342494,9.26384387 L5.24999661,9.20278336 L5.57798936,9.15042338 L5.92208056,9.10623984 L6.28694761,9.06970864 L6.67726788,9.04030567 L7.09771877,9.01750684 L7.55297765,9.00078805 L8.31136275,8.98596344 L9.17437613,8.98187084 L10.157804,8.9867414 L11.5940949,8.99906348 L12,9 L12,9.00787084 L12.5979981,8.99167823 L13.0925793,8.9679359 L13.5379486,8.93535011 C14.1731771,8.87944047 14.6698786,8.79099507 15.1520853,8.65791293 C16.4590572,8.29720742 17,7.69362024 17,6.5 C17,5.30637976 16.4590572,4.70279258 15.1520853,4.34208707 C14.6698786,4.20900493 14.1731771,4.12055953 13.5379486,4.06464989 L13.0925793,4.0320641 L12.5979981,4.00832177 L12.0460384,3.99262611 L11.4285334,3.98418036 L10.5006021,3.98277788 L8.99997628,3.99311298 C8.49067236,3.99662065 8.06827156,3.61613009 8.00750261,3.12261169 L8,3 C8,2.44668045 8.44667126,1.99713416 8.99997942,1.99358415 L10.8256239,1.98187084 Z M15.0761294,15 C15.1838609,15 15.2901128,15.0250827 15.3864707,15.0732617 L17.9984301,16.3792413 C18.3412236,16.5506381 18.4801682,16.9674718 18.3087714,17.3102653 C18.2416228,17.4445626 18.1327273,17.5534581 17.9984301,17.6206067 L15.3864707,18.9265863 C15.0436772,19.0979831 14.6268435,18.9590386 14.4554467,18.616245 C14.4072677,18.519887 14.3821851,18.4136351 14.3821851,18.3059036 L14.3821851,15.6939443 C14.3821851,15.3106895 14.6928745,15 15.0761294,15 Z M3,1 C4.1045695,1 5,1.8954305 5,3 C5,4.1045695 4.1045695,5 3,5 C1.8954305,5 1,4.1045695 1,3 C1,1.8954305 1.8954305,1 3,1 Z" id="Shape" fill="#000000" fill-rule="nonzero"></path>
            </g>
        </g>
    </g>
</svg>