<?xml version="1.0" encoding="UTF-8"?>
<svg width="20px" height="17px" viewBox="0 0 20 17" version="1.1" xmlns="http://www.w3.org/2000/svg" xmlns:xlink="http://www.w3.org/1999/xlink">
    <title>icon/project/update</title>
    <g id="⎋-Style-guide" stroke="none" stroke-width="1" fill="none" fill-rule="evenodd">
        <g id="Style-guide" transform="translate(-1172.000000, -122.000000)">
            <g id="icon/project/update" transform="translate(1172.000000, 121.000000)">
                <rect id="icon_area" x="0" y="0" width="20" height="20"></rect>
                <g id="􀊯" transform="translate(0.000000, 1.000000)" fill="#000000" fill-rule="nonzero">
                    <path d="M0.173579899,8.51312403 C0.00798068503,8.75810602 -0.0391294363,8.97392349 0.0322495354,9.16057643 C0.103628507,9.34722937 0.293496572,9.44055584 0.60185373,9.44055584 L1.72393117,9.44055584 C1.83813752,10.4904786 2.13221888,11.473323 2.60617526,12.389089 C3.08013163,13.304855 3.69113563,14.1068794 4.43918725,14.7951621 C5.18723888,15.4834448 6.03522106,16.0229885 6.9831338,16.4137931 C7.93104655,16.8045977 8.93606247,17 9.99818157,17 C11.2144792,17 12.3536876,16.7433522 13.4158067,16.2300566 C14.4779258,15.716761 15.3858664,15.0284783 16.1396283,14.1652084 C16.3109378,13.9785555 16.3923099,13.7773203 16.3837444,13.5615028 C16.3751789,13.3456854 16.2909517,13.1706982 16.1310628,13.0365414 C15.9654636,12.8965517 15.784161,12.8367645 15.5871551,12.8571796 C15.3901491,12.8775948 15.2088465,12.9752959 15.0432473,13.1502831 C14.426533,13.8560645 13.6827641,14.4160233 12.8119406,14.8301595 C11.9411172,15.2442958 11.0031975,15.4513639 9.99818157,15.4513639 C9.13021327,15.4513639 8.31363784,15.2982501 7.54845526,14.9920226 C6.78327268,14.6857952 6.09946213,14.2585349 5.49702361,13.7102419 C4.89458509,13.1619489 4.40064261,12.5261623 4.01519616,11.8028821 C3.62974971,11.079602 3.38277847,10.2921599 3.27428243,9.44055584 L4.48201463,9.44055584 C4.78466147,9.44055584 4.97310196,9.34722937 5.04733609,9.16057643 C5.12157022,8.97392349 5.07588768,8.76102247 4.91028846,8.52187339 L3.02588361,5.80957283 C2.88883598,5.60542117 2.72751951,5.50334534 2.54193418,5.50334534 C2.35634886,5.50334534 2.19217722,5.60542117 2.04941928,5.80957283 L0.173579899,8.51312403 Z M3.87386579,2.8260422 C3.69684595,3.01269514 3.61261876,3.21393035 3.62118423,3.42974781 C3.62974971,3.64556528 3.7139769,3.82055241 3.87386579,3.95470921 C4.03946501,4.08886601 4.2207676,4.14719506 4.41777356,4.12969635 C4.61477952,4.11219763 4.79608211,4.01595471 4.96168132,3.84096758 C5.57839564,3.14101904 6.32073695,2.58543489 7.18870524,2.17421513 C8.05667354,1.76299537 8.99316565,1.55738549 9.99818157,1.55738549 C10.8661499,1.55738549 11.6827253,1.709041 12.4479079,2.01235203 C13.2130905,2.31566306 13.896901,2.74000686 14.4993395,3.28538343 C15.1017781,3.83075999 15.5957205,4.4680048 15.981167,5.19711786 C16.3666134,5.92623091 16.6135847,6.71367301 16.7220807,7.55944416 L15.5143485,7.55944416 C15.217412,7.55944416 15.0289715,7.65277063 14.9490271,7.83942357 C14.8690826,8.02607651 14.9147651,8.23897753 15.0860747,8.47812661 L16.9619141,11.1904272 C17.0989617,11.3887459 17.2617057,11.4893635 17.4501462,11.4923416 C17.6385867,11.4951964 17.8013308,11.3945788 17.9383784,11.1904272 L19.8227832,8.48687597 C19.9940928,8.24189398 20.0412029,8.02607651 19.9641136,7.83942357 C19.8870243,7.65277063 19.6971563,7.55944416 19.3945094,7.55944416 L18.2638665,7.55944416 C18.1496601,6.50952136 17.8570064,5.52667696 17.3859051,4.61091096 C16.9148039,3.69514496 16.3052275,2.8931206 15.5571759,2.20483788 C14.8091243,1.51655516 13.9611421,0.977011494 13.0132293,0.586206897 C12.0653166,0.195402299 11.0603007,0 9.99818157,0 C8.78759421,0 7.65266856,0.255189569 6.59340462,0.765568708 C5.53414068,1.27594785 4.62762774,1.96277235 3.87386579,2.8260422 Z" id="Shape"></path>
                </g>
            </g>
        </g>
    </g>
</svg>