<svg width="41" height="41" xmlns="http://www.w3.org/2000/svg"><defs><clipPath id="a"><path d="M23.618 0c.07 0 .14.015.205.043l7.568 3.373a.5.5 0 0 1 .215.184l4.314 6.648a.494.494 0 0 1-.035.586l-17.5 20.986c-.2.24-.57.24-.77 0L.115 10.834a.494.494 0 0 1-.035-.586L4.393 3.6a.5.5 0 0 1 .216-.184L12.177.043A.502.502 0 0 1 12.382 0h11.236Z"/></clipPath><clipPath id="c"><path d="M23.618 0c.07 0 .14.015.205.043l7.568 3.373a.5.5 0 0 1 .215.184l4.314 6.648a.494.494 0 0 1-.035.586H.115a.494.494 0 0 1-.035-.586L4.393 3.6a.5.5 0 0 1 .216-.184L12.177.043A.502.502 0 0 1 12.382 0h11.236Z"/></clipPath><clipPath id="e"><path d="m6.827 0 6.828 8.929H0L6.827 0Z"/></clipPath><clipPath id="f"><path d="M13.655 0 9.141 13.8l-1.92 2.423a.518.518 0 0 1-.801.01L4.384 13.8 0 0h13.655Z"/></clipPath><clipPath id="h"><path d="m0 0 12.103 1.773-6.827 8.93L0 0Z"/></clipPath><clipPath id="i"><path d="m5.781 0 5.276 10.702L0 6.002 5.781 0Z"/></clipPath><clipPath id="j"><path d="M12.103 0 6.827 10.702 0 1.773 12.103 0Z"/></clipPath><clipPath id="k"><path d="m5.276 0 5.781 6.002L0 10.702 5.276 0Z"/></clipPath><clipPath id="l"><path d="M1.304 0c.024.012.095.043.168.131.034.043.437.628 1.008 1.481l.237.355c.94 1.41 2.212 3.36 3.1 4.856a.496.496 0 0 1-.036.586L0 1.407 1.304 0Z"/></clipPath><clipPath id="m"><path d="m4.592 0 1.303 1.407-5.78 6.002a.496.496 0 0 1-.036-.586c.347-.585.754-1.24 1.176-1.906l.426-.666A159.767 159.767 0 0 1 4.39.177L4.424.13c.072-.088.143-.119.168-.131Z"/></clipPath><clipPath id="n"><path d="m.755.01 2.072 1.531c.608.45 1.418.532 2.106.213L7.275.67c.049-.022.096.034.064.077l-1.55 2.046c-.456.6-.539 1.4-.216 2.08L6.67 7.186c.023.047-.034.094-.077.062L4.522 5.717a2.078 2.078 0 0 0-2.106-.213L.074 6.59c-.049.022-.096-.034-.063-.076l1.55-2.047c.455-.6.538-1.4.215-2.08L.678.074C.655.025.712-.021.755.01Z"/></clipPath><linearGradient id="b" x1="0" y1="11.048" x2="36.9" y2="10.665" gradientUnits="userSpaceOnUse"><stop stop-color="#9889FE" offset="0%"/><stop stop-color="#68A3F1" offset="49.503%"/><stop stop-color="#61A8EA" offset="100%"/></linearGradient><linearGradient id="d" x1="4.371" y1="3.429" x2="30.986" y2="3.301" gradientUnits="userSpaceOnUse"><stop stop-color="#B69EFD" offset="0%"/><stop stop-color="#9BB7FC" offset="100%"/></linearGradient><linearGradient id="g" x1="6.827" y1="0" x2="6.827" y2="16.418" gradientUnits="userSpaceOnUse"><stop stop-color="#B3C9FA" offset="0%"/><stop stop-color="#A3D2F6" offset="100%"/></linearGradient></defs><g clip-path="url(#a)" transform="translate(3 5)"><path fill="url(#b)" d="M0 0h36v32H0V0z"/></g><g clip-path="url(#c)" transform="translate(3 5)"><path fill="url(#d)" d="M0 0h36v10.834H0V0z"/></g><g clip-path="url(#e)" transform="translate(14.173 11.605)"><path fill="#95B0FF" d="M0 0h13.655v8.929H0V0z"/></g><g clip-path="url(#f)" transform="translate(14.173 20.534)"><path fill="url(#g)" d="M0 0h13.655v16.418H0V0z"/></g><g clip-path="url(#h)" transform="translate(8.897 9.831)"><path fill="#D7D6FC" d="M0 0h12.103v10.702H0V0z"/></g><g clip-path="url(#i)" transform="translate(3.115 9.831)"><path fill="#BDB3F9" d="M0 0h11.057v10.702H0V0z"/></g><g clip-path="url(#j)" transform="translate(21 9.831)"><path fill="#6E97FF" d="M0 0h12.103v10.702H0V0z"/></g><g clip-path="url(#k)" transform="translate(27.828 9.831)"><path fill="#A3CCFA" d="M0 0h11.057v10.702H0V0z"/></g><g clip-path="url(#l)" transform="translate(33.104 8.426)"><path fill="#799FF0" d="M0 0h5.896v7.409H0V0z"/></g><g clip-path="url(#m)" transform="translate(3 8.426)"><path fill="#B28DFF" d="M0 0h5.895v7.409H0V0z"/></g><g clip-path="url(#n)" transform="translate(10.827 15.778)"><path fill="#FFF" d="M0 0h7.35v7.258H0V0z"/></g></svg>