<svg viewBox="0 0 60 60" xmlns="http://www.w3.org/2000/svg">
    <path transform="translate(4 4)" d="M53,18.8450333 L53,53 L48.0674667,53 L48.0674667,23.7758 L53,18.8450333 Z M16.9299667,30.6216333 L16.9299667,53 L11.9992,53 L11.9992,35.5541667 L16.9299667,30.6216333 Z M24.0708333,30.6216333 L28.9291667,35.6283667 L28.9291667,53 L24.0708333,53 L24.0708333,30.6216333 Z M41.0008,30.6958333 L41.0008,53 L36.0700333,53 L36.0700333,35.6283667 L41.0008,30.6958333 Z M4.93253333,42.4 L4.93253333,53 L0,53 L0,47.3325333 L4.93253333,42.4 Z M53,0 L53,6.92003333 L32.3883,27.6041667 L20.6117,15.8258 L0,36.3633 L0,29.3708333 L20.6117,8.90753333 L32.3883,20.6841333 L53,0 Z"></path>
</svg>