<svg viewBox="0 0 60 60" xmlns="http://www.w3.org/2000/svg">
    <path transform="translate(10 3)" d="M14.1040573,0 L14.1040573,6.40416667 L21.4103869,6.40416667 L21.4103869,0 L26.3069957,0 L26.3069957,6.625 C31.4227549,7.80449918 35.0566159,12.3801507 35.0759943,17.6666667 C35.0717005,19.0642004 34.8112804,20.4489235 34.30783,21.7512 C33.8102589,23.0795969 33.0528318,24.2937629 32.0805044,25.3216333 C33.8521896,26.3229262 35.3370955,27.7682171 36.3913441,29.5174667 C39.0422636,33.943038 38.3640965,39.6179281 34.7462799,43.2833333 C32.6766445,45.4506435 29.8039752,46.6510355 26.8191052,46.5958333 L26.3069957,46.5958333 L26.3069957,53 L21.4103869,53 L21.4103869,46.5958333 L14.1040573,46.5958333 L14.1040573,53 L9.28110808,53 L9.28110808,46.5958333 L0,46.5958333 L0,41.7375 L6.35752396,41.7375 L6.35752396,11.2625 L0,11.2625 L0,6.40416667 L9.28110808,6.40416667 L9.28110808,0 L14.1040573,0 Z M26.8191052,28.9291667 L11.1804732,28.9291667 L11.1804732,41.7375 L26.8191052,41.7375 C28.5001743,41.7681671 30.1168818,41.086873 31.2755103,39.8595333 C33.7117865,37.3410658 33.7117865,33.3256008 31.2755103,30.8071333 C30.1168818,29.5797937 28.5001743,28.8984995 26.8191052,28.9291667 Z M23.8955211,11.2625 L11.1804732,11.2625 L11.1804732,24.0708333 L23.8955211,24.0708333 C25.5770721,24.1013431 27.1942606,23.4201143 28.35368,22.1928667 C30.7881046,19.673641 30.7881046,15.6596924 28.35368,13.1404667 C27.1942606,11.913219 25.5770721,11.2319902 23.8955211,11.2625 Z"></path>
</svg>
