<svg viewBox="0 0 60 60" xmlns="http://www.w3.org/2000/svg">
    <path transform="translate(0 10)" d="M45.5689109,0.000163509721 C48.2409302,-0.0146570087 50.8160965,1.01638334 52.7602819,2.87959858 C54.7874977,4.69009466 56.1069854,7.18090682 56.4781251,9.8978142 L59.8719848,34.1178563 C60.250217,36.1169742 59.7816253,38.1855352 58.5813621,39.8152077 C57.3772199,41.2890247 55.5574948,42.0960477 53.6755795,41.9908546 C52.7025673,42.0115788 51.7365385,41.8194888 50.8429371,41.4275978 C50.0450003,41.0627621 49.3102667,40.5693334 48.6671136,39.9663693 L41.3642073,32.4676758 L18.6428743,32.4676758 L11.339968,39.9663693 C10.6968149,40.5693334 9.96208131,41.0627621 9.16414454,41.4275978 C8.26836168,41.8205036 7.29980983,42.012615 6.32442051,41.9908546 C4.44250518,42.0960477 2.62278009,41.2890247 1.4186379,39.8152077 C0.21837469,38.1855352 -0.250217023,36.1169742 0.128015195,34.1178563 L3.5218749,9.8978142 C3.94409435,7.17995473 5.28734436,4.69748198 7.31938616,2.87959858 C9.26411479,1.01611207 11.8399315,-0.014934871 14.5125275,0.000163509721 L45.5689109,0.000163509721 Z M45.5689109,5.02462732 L14.4381707,5.02462732 C12.9736107,5.02022837 11.5624418,5.58330474 10.4919457,6.59925286 C9.336311,7.64898651 8.59046544,9.08603371 8.39047908,10.6482234 L4.99661937,35.3163516 C4.8986863,35.766811 4.97812024,36.2383409 5.21791956,36.6300176 C5.43701606,37.0395129 5.86623694,37.2866253 6.32442051,37.2670556 C6.78395343,37.1728324 7.21409675,36.9665716 7.57786478,36.6660084 L16.5785861,27.518934 L43.4284955,27.518934 L52.4292168,36.6660084 C52.7998382,36.9553302 53.227305,37.1603076 53.6826611,37.2670556 C54.1408447,37.2866253 54.5700655,37.0395129 54.789162,36.6300176 C55.0289614,36.2383409 55.1083953,35.766811 55.0104622,35.3163516 L51.6166025,10.6482234 C51.4166162,9.08603371 50.6707706,7.64898651 49.5151359,6.59925286 C48.4446398,5.58330474 47.0334709,5.02022837 45.5689109,5.02462732 Z M45.7158543,17.9957553 C46.5103618,17.978216 47.2746178,18.3054425 47.8173209,18.8955265 C48.9500265,20.0588625 48.9500265,21.9323227 47.8173209,23.0956587 C47.2746178,23.6857427 46.5103618,24.0129692 45.7158543,23.9954299 C44.0859188,23.9954299 42.7645949,22.652357 42.7645949,20.9955926 C42.7645949,19.3388282 44.0859188,17.9957553 45.7158543,17.9957553 Z M20.930233,8.77310016 L20.930233,14.2473083 L26.3157944,14.2473083 L26.3157944,18.2206981 L20.930233,18.2206981 L20.930233,23.7704871 L16.9468296,23.7704871 L16.9468296,18.2206981 L11.5612682,18.2206981 L11.5612682,14.2473083 L16.9468296,14.2473083 L16.9468296,8.77310016 L20.930233,8.77310016 Z M39.5929206,8.54604442 C41.194698,8.54604442 42.5040662,9.84475943 42.5432948,11.4724139 C42.5608311,12.2805772 42.2388987,13.0580791 41.658094,13.6102703 C41.1112301,14.1668478 40.3676676,14.4773358 39.5938058,14.4722512 C38.8193701,14.4776167 38.0751552,14.1671226 37.5277473,13.6102703 C36.9469426,13.0580791 36.6250102,12.2805772 36.6425465,11.4724139 C36.681775,9.84475943 37.9911432,8.54604442 39.5929206,8.54604442 Z"></path>
</svg>