<svg viewBox="0 0 60 60" xmlns="http://www.w3.org/2000/svg">
    <path transform="translate(0 5)" d="M20.5758889,8.30273334e-05 L26.1813351,11.3825961 L35.5479348,11.3825961 L29.9424886,8.30273334e-05 L36.284236,8.30273334e-05 L41.8896821,11.3825961 L51.2562819,11.3825961 L45.6508357,8.30273334e-05 L54.05812,8.30273334e-05 C55.285451,-0.00715712698 56.4644696,0.45938403 57.3504703,1.29610695 L57.5236911,1.46835659 C58.4733381,2.36625724 59.007637,3.61538169 58.9999175,4.91939322 L58.9999175,42.0806068 C58.9461694,44.7756573 56.7645401,46.9473589 54.05812,46.999917 L4.94188003,46.999917 C3.71454899,47.0071571 2.53553036,46.540616 1.64952966,45.7038931 L1.47630894,45.5316434 C0.526661905,44.6337428 -0.00763703867,43.3846183 8.25033123e-05,42.0806068 L8.25033123e-05,4.91939322 C-0.00715456729,3.69688241 0.461991797,2.5226122 1.3031484,1.64075652 L1.47630894,1.46835659 C2.3785426,0.523695213 3.63272693,-0.00763980394 4.94188003,8.30273334e-05 L10.5473262,11.3825961 L19.8395878,11.3825961 L14.2341416,8.30273334e-05 L20.5758889,8.30273334e-05 Z M54.05812,16.2295577 L4.94188003,16.2295577 L4.94188003,42.0806068 L54.05812,42.0806068 L54.05812,16.2295577 Z"></path>
</svg>