<svg viewBox="0 0 60 60" xmlns="http://www.w3.org/2000/svg">
    <path transform="translate(6 0)" d="M23.5,0 L46.999735,8.8500885 L46.999735,26.5502655 C47.0285112,33.9263479 44.7130752,41.1192977 40.3900752,47.0824708 C36.4110798,53.0058435 30.3978644,57.2487299 23.5,59 C16.6043212,57.2522994 10.5914277,53.0146812 6.60992475,47.096631 C2.28692481,41.1334578 -0.0285112401,33.9405081 0.000265008835,26.5644256 L0.000265008835,8.86424864 L23.5,0 Z M23.5,5.23571236 L4.91968348,12.3157832 L4.91968348,26.5502655 C4.85936736,32.6459649 6.68133148,38.6106789 10.1349326,43.6238562 C13.3007512,48.4745716 18.0130939,52.1017502 23.5,53.9111991 C28.9869061,52.1017502 33.6992488,48.4745716 36.8650674,43.6238562 C40.2140139,38.7625934 42.0287123,33.0065889 42.0806214,27.1040363 L42.0803165,12.3157832 L23.5,5.23571236 Z M26.9509827,17.2576726 L26.9509827,24.6315663 L34.2953366,24.6315663 L34.2953366,31.5647256 L26.9509827,31.5647256 L26.9509827,38.9403894 L20.0490173,38.9403894 L20.0490173,31.5647256 L12.7046634,31.5647256 L12.7046634,24.6315663 L20.0490173,24.6315663 L20.0490173,17.2576726 L26.9509827,17.2576726 Z"></path>
</svg>