<svg viewBox="0 0 60 60" xmlns="http://www.w3.org/2000/svg">
    <path transform="translate(8 2)"
          d="M22.8012976,0 L23.7768012,2.72687656 L26.7753048,1.69589794 L35.1750746,23.5798781 L32.0253859,24.6851296 L33.0746822,27.4102378 L27.9757861,29.2529131 L27.0002826,26.4535321 L23.9261864,27.6312881 L22.0507718,22.621404 C21.3253792,23.3915982 20.4267447,23.9844686 19.4266311,24.35267 C18.4211931,24.7225769 17.3491578,24.8856911 16.2769424,24.831907 C15.0508884,24.7255134 13.8682135,24.3339272 12.8266834,23.6895191 C11.7704914,23.0698784 10.8931692,22.1950878 10.2781353,21.1483248 C8.61059421,21.8593258 7.22698109,23.0889281 6.34012457,24.6479932 C5.47300169,26.1664168 5.0209647,27.8796374 5.02805425,29.6207408 C4.97383923,32.149136 5.97694146,34.5888252 7.80337995,36.3707329 C9.58647521,38.1856756 12.0596939,39.1869227 14.6265056,39.1329775 L39.9752001,39.1329775 L39.9752001,43.9960843 L23.4006383,43.9960843 L23.4006383,51.069694 L42,51.069694 L42,56 L0.00295092845,56 L0.00295092845,51.0626204 L15.3770314,51.0626204 L15.3770314,43.9890106 L14.6265056,43.9890106 C10.7416544,44.0553266 6.99976111,42.5501705 4.27752844,39.8261913 C1.47158261,37.1555646 -0.0770226734,33.4583069 0.00295092845,29.6207408 C-0.0222689815,26.7199954 0.857060159,23.8812086 2.52270188,21.4860896 C4.20207576,19.047799 6.62962493,17.199756 9.452017,16.2109451 C9.68615205,14.4211601 10.6460553,12.8001476 12.1139539,11.7156662 C13.5595247,10.5618487 15.3935003,9.98370678 17.252446,10.0958095 L15.6776017,5.67480342 L18.6761053,4.5695519 L17.626809,1.84267534 L22.8012976,0 Z M24.3005494,6.55900464 L20.7009052,7.81103357 L26.4765343,22.5471311 L30.000586,21.2951022 L24.3005494,6.55900464 Z M15.0247175,14.3976667 C13.922213,15.0340115 13.2567506,16.2069579 13.2856381,17.4629741 C13.2720093,18.3644253 13.6388205,19.2311963 14.2989379,19.857391 C14.9583483,20.5137836 15.8640533,20.8739635 16.8024905,20.8530015 C17.7396021,20.8805155 18.6482791,20.5348689 19.3222414,19.8945274 C19.9957167,19.2619025 20.3640585,18.3780152 20.3355413,17.4629741 C20.3644288,16.2069579 19.6989664,15.0340115 18.5964619,14.3976667 C17.4939575,13.761322 16.1272219,13.761322 15.0247175,14.3976667 Z"></path>
</svg>