<svg viewBox="0 0 40 40" xmlns="http://www.w3.org/2000/svg">
    <defs>
        <linearGradient x1="50%" y1="0%" x2="50%" y2="100%" id="inst">
            <stop stop-color="#CA36E8" offset="0%"></stop>
            <stop stop-color="#FE5C02" offset="100%"></stop>
        </linearGradient>
    </defs>
    <g transform="translate(6.000000, 6.000000)" fill="url(#inst)">
        <path d="M14.5,29 C10.62125,29 10.1004583,28.9842917 8.522375,28.9154167 C7.31999527,28.8893804 6.13054093,28.6614561 5.00370833,28.2411667 C4.03802782,27.874394 3.16238063,27.3045022 2.436,26.5700417 C1.69705862,25.8442542 1.12478145,24.9664602 0.758833333,23.9975 C0.337362262,22.8714178 0.109396932,21.6821578 0.0845833333,20.4800417 C0.0157083333,18.90075 0,18.3799583 0,14.5 C0,10.5862083 0.0169166667,10.0714583 0.090625,8.51995833 C0.116567452,7.31796143 0.344496863,6.12888882 0.764875,5.0025 C1.13088671,4.03678716 1.7008895,3.16138156 2.436,2.436 C3.16049721,1.69548427 4.03866157,1.12296566 5.00854167,0.758833333 C6.13530469,0.336802309 7.32545469,0.108823009 8.52841667,0.0845833333 C10.1065,0.0157083333 10.6260833,0 14.5060417,0 C18.4053333,0 18.9225,0.0169166667 20.4897083,0.090625 C21.6920469,0.117049309 22.8814372,0.34496131 24.008375,0.764875 C24.9741224,1.13081865 25.8495417,1.70083038 26.574875,2.436 C27.3161576,3.1598678 27.8887947,4.03821384 28.2520417,5.00854167 C28.6745032,6.13476463 28.9024989,7.32459212 28.9262917,8.52720833 C28.9939583,10.063 29,10.5656667 29,14.5 C29,18.3835833 28.9842917,18.9031667 28.9154167,20.477625 C28.8895888,21.679634 28.6616558,22.8687256 28.2411667,23.9950833 C27.4850689,25.9430716 25.9444951,27.4832069 23.9962917,28.23875 C22.8696334,28.6596615 21.6800727,28.8876061 20.477625,28.913 C18.8983333,28.9842917 18.37875,29 14.5,29 Z M14.5,7.05304167 C10.3866136,7.0577124 7.05552876,10.3954674 7.05908366,14.508855 C7.06264426,18.6222425 10.3994979,21.9542303 14.5128862,21.9517869 C18.6262746,21.9493408 21.9591651,18.6133889 21.9578337,14.5 C21.951174,10.3880334 18.6180118,7.05703301 14.5060417,7.05304167 L14.5,7.05304167 Z M22.246625,5.01820833 C21.2864742,5.01820833 20.5080561,5.79644675 20.5078338,6.7565975 C20.5076115,7.71674825 21.2856693,8.49534673 22.24582,8.49579167 C23.2059707,8.49623623 23.9847494,7.71835888 23.9854167,6.75820833 C23.9840991,5.800802 23.2100626,5.02406659 22.2526667,5.01941667 L22.246625,5.01820833 Z M14.5060417,19.3333333 C11.8366654,19.3333333 9.67270833,17.1693763 9.67270833,14.5 C9.67270833,11.8306237 11.8366654,9.66666667 14.5060417,9.66666667 C17.175418,9.66666667 19.339375,11.8306237 19.339375,14.5 C19.339375,15.7818797 18.8301503,17.0112569 17.9237244,17.9176828 C17.0172986,18.8241086 15.7879214,19.3333333 14.5060417,19.3333333 Z"></path>
    </g>
</svg>