<svg viewBox="0 0 40 40" version="1.1" xmlns="http://www.w3.org/2000/svg" xmlns:xlink="http://www.w3.org/1999/xlink">
    <defs>
        <linearGradient x1="50%" y1="0%" x2="50%" y2="100%" id="tg">
            <stop stop-color="#4BC0FD" offset="0%"></stop>
            <stop stop-color="#068DCE" offset="100%"></stop>
        </linearGradient>
    </defs>
    <g stroke="none" stroke-width="1" fill="none" fill-rule="evenodd">
        <rect id="Area" x="0" y="0" width="40" height="40"></rect>
        <g id="t_logo" transform="translate(6.000000, 6.000000)" fill="url(#tg)">
            <path d="M14.5,0 C22.5081289,0 29,6.49187113 29,14.5 C29,22.5081289 22.5081289,29 14.5,29 C6.49187113,29 0,22.5081289 0,14.5 C0,6.49187113 6.49187113,0 14.5,0 Z M19.5286694,8.7001524 L19.3970899,8.70815568 L19.3970899,8.70815568 L19.2994529,8.72087484 L19.2994529,8.72087484 L19.1319898,8.75346881 L19.1319898,8.75346881 L19.0027662,8.78563149 L19.0027662,8.78563149 L18.7764267,8.85196534 L18.7764267,8.85196534 L18.5037247,8.94293474 L18.5037247,8.94293474 L18.1763827,9.0618334 L18.1763827,9.0618334 L17.6406245,9.26950328 L17.6406245,9.26950328 L16.3748855,9.78997344 L16.3748855,9.78997344 L13.8335329,10.8786513 L13.8335329,10.8786513 L10.1884375,12.4947379 L10.1884375,12.4947379 L6.12697215,14.3179041 L6.12697215,14.3179041 C5.46372843,14.5906143 5.11432732,14.8573266 5.0787688,15.1180408 C5.0365189,15.4627774 5.35324368,15.6442177 5.84054994,15.8198462 L6.12213818,15.9160138 L6.12213818,15.9160138 L6.59309797,16.0705274 L6.59309797,16.0705274 C7.29774152,16.3322702 8.02856349,16.5113333 8.77183038,16.6043518 C9.32448215,16.5786161 9.85572027,16.3757109 10.2919571,16.0237428 L14.5534234,13.0686864 L14.5534234,13.0686864 L15.3909182,12.4998159 L15.3909182,12.4998159 L16.0541382,12.0649927 L16.0541382,12.0649927 L16.1914169,11.9862972 L16.1914169,11.9862972 L16.2054937,11.9810729 C16.3010423,11.9423935 16.4086822,11.9530842 16.495373,12.0098634 C16.5549149,12.0800654 16.5789785,12.1752021 16.5603059,12.266579 C16.5511844,12.3070457 16.4795211,12.4021504 16.3616668,12.5371296 L16.1522858,12.7676589 L16.1522858,12.7676589 L15.7351276,13.2013786 L15.7351276,13.2013786 L15.2310542,13.7073913 L15.2310542,13.7073913 L13.9493671,14.9593087 L13.9493671,14.9593087 L12.730765,16.1364165 L12.730765,16.1364165 L12.4535974,16.42205 L12.4535974,16.42205 L12.1428799,16.7355011 L12.1428799,16.7355011 L12.0052241,16.8852282 C11.5738728,17.3790058 11.4436374,17.8278665 12.39764,18.4781353 L13.1345679,18.9851586 L13.1345679,18.9851586 L14.7739722,20.1329785 C15.0065246,20.2945451 15.2541745,20.4652148 15.5283358,20.6518201 L15.8570065,20.8848443 L15.8570065,20.8848443 L16.3251657,21.2261639 C16.7843116,21.549235 17.2270282,21.7935873 17.7488108,21.7434609 C18.1268134,21.7074728 18.5106135,21.3439924 18.7065719,20.25715 L18.8541824,19.4250536 L18.8541824,19.4250536 L19.2623343,17.0138264 L19.2623343,17.0138264 L19.4491057,15.8633996 L19.4491057,15.8633996 L19.766547,13.8260199 L19.766547,13.8260199 L19.975011,12.4037133 L19.975011,12.4037133 L20.1480372,11.1228569 L20.1480372,11.1228569 L20.2170488,10.5584221 L20.2170488,10.5584221 L20.2721463,10.0568893 C20.280076,9.97905232 20.2873559,9.90421874 20.2939506,9.83257981 C20.3068652,9.64194384 20.2990865,9.45041093 20.2707603,9.26156768 C20.2541185,9.10958272 20.1829464,8.96959484 20.0713234,8.86929674 C19.9119239,8.75572768 19.7221806,8.69658499 19.5286694,8.7001524 Z"
                  id="Shape"></path>
        </g>
    </g>
</svg>