<svg viewBox="0 0 40 40" version="1.1" xmlns="http://www.w3.org/2000/svg">
    <defs>
        <linearGradient x1="50%" y1="0%" x2="50%" y2="100%" id="twitter">
            <stop stop-color="#1D9CF0" offset="0%"></stop>
            <stop stop-color="#1D9CF0" offset="100%"></stop>
        </linearGradient>
    </defs>
    <g stroke="none" stroke-width="1" fill="none" fill-rule="evenodd">
        <rect id="Area" x="0" y="0" width="40" height="40"></rect>
        <g transform="translate(2.000000, 6.000000)" fill="url(#twitter)">
            <path d="M36,3.43387863 C34.6457761,4.01953303 33.213528,4.40876055 31.7473684,4.58957312 C33.2929872,3.68116079 34.4487188,2.24212384 34.9954887,0.545238751 C33.5488609,1.39582567 31.96614,1.99483298 30.3157895,2.31634949 C28.2445627,0.122863085 25.0311405,-0.592060557 22.2131209,0.513664069 C19.3951013,1.61938869 17.5455541,4.32090243 17.5494737,7.3255516 C17.5435137,7.88670002 17.6008115,8.44675197 17.7203008,8.99528563 C11.7801273,8.70533465 6.24621372,5.91899727 2.50586466,1.33478442 C0.533377118,4.67620397 1.52726853,8.96260063 4.77353383,11.1146552 C3.60674333,11.0828116 2.46473631,10.773586 1.44360902,10.2129988 L1.44360902,10.2929075 C1.44778066,13.7754416 3.91643547,16.7770982 7.35639098,17.4823052 C6.72508535,17.6464269 6.07457849,17.7266402 5.42195489,17.7208386 C4.95342175,17.7309236 4.48515611,17.6909373 4.02526316,17.6015719 C5.00241114,20.5774486 7.76519397,22.619779 10.9209023,22.6990314 C8.30836547,24.7247214 5.0862817,25.8236717 1.76962406,25.8202414 C1.17811758,25.8232283 0.587027648,25.7885697 0,25.7164793 C3.37462141,27.8723363 7.30696014,29.0127759 11.3215038,29 C24.9022556,29 32.327218,17.8472613 32.327218,8.17950129 C32.327218,7.85628849 32.316391,7.54380969 32.3007519,7.23371623 C33.7566084,6.20061599 35.0102026,4.91293415 36,3.43387863 Z"></path>
        </g>
    </g>
</svg>