<svg viewBox="0 0 40 40" xmlns="http://www.w3.org/2000/svg">
<g stroke="none" stroke-width="1" fill="none" fill-rule="evenodd">
    <g id="youtube" transform="translate(3.000000, 8.000000)" fill="#FF2500">
        <path d="M17.5009654,0 L18.9609285,0.00380127728 L20.7876764,0.020549679 L22.0678352,0.0417143999 L22.8784638,0.0598539642 L24.3969756,0.105643415 L25.7784936,0.16387466 L26.72473,0.215540757 L27.5939073,0.273923476 L28.3860256,0.338902007 L28.8712939,0.385825709 L29.3223138,0.435591396 L29.7390852,0.488163271 L30.1216082,0.54350554 L30.4698827,0.601582407 C30.5250744,0.611487779 30.5788391,0.621505602 30.6311768,0.631635129 L30.9280786,0.693746777 C30.9747082,0.704320139 31.0199108,0.715003713 31.0636863,0.725796755 L31.190732,0.758503536 C32.6149428,1.09399073 33.7423166,2.14751933 34.1584608,3.51330136 L34.2145294,3.72045984 C34.4803265,4.78883318 34.6441329,5.87914334 34.7038295,6.9772844 C34.826638,8.34827954 34.8788558,9.53154506 34.8788558,10.5602655 L34.9832914,12.0004741 C35.0712842,14.7810986 34.811483,17.5618194 34.2096944,20.2804883 C33.8497819,21.7477447 32.6813834,22.8933468 31.18493,23.2462371 C29.6595469,23.549201 28.1083278,23.7098361 26.5520507,23.7259906 C24.2796094,23.846403 22.2005674,23.897602 20.2752778,23.897602 L17.4951634,24 L15.5656701,23.9932541 L13.7731707,23.9732073 L12.117665,23.940146 L10.5991532,23.8943566 L9.21763515,23.8361253 L8.2713988,23.7844592 L7.40222147,23.7260765 L6.61010316,23.661098 L6.12483485,23.6141743 L5.67381499,23.5644086 L5.06150104,23.4845097 L4.69610231,23.4277956 L4.36495203,23.3683649 L4.06805021,23.3062532 C4.0214206,23.2956799 3.97621802,23.2849963 3.93244246,23.2742032 L3.80539683,23.2414965 C2.31370748,22.8861218 1.14988023,21.7428059 0.790302374,20.2795402 C0.52450528,19.2111668 0.36069882,18.1208567 0.301002248,17.0227156 C0.178193718,15.6517205 0.125975918,14.4684549 0.125975918,13.4397345 L0.0167053366,11.9995259 C-0.0712776675,9.21890173 0.1885234,6.43818202 0.790302374,3.71951171 C1.15116244,2.25509675 2.31752791,1.11185408 3.81119881,0.758503536 C5.33658187,0.455539614 6.88780094,0.294904572 8.44407807,0.278750049 C10.7165194,0.158337613 12.7955614,0.107138624 14.720851,0.107138624 L17.5009654,0 Z M14.0043068,6.85782009 L14.0043068,17.143128 L23.0786,12.0004741 L14.0043068,6.85782009 Z"
              id="Shape"></path>
    </g>
</g>
</svg>