<?xml version="1.0" encoding="UTF-8"?>
<svg version="1.1" width="354px" height="79px" viewBox="0 0 354.0 79.0" xmlns="http://www.w3.org/2000/svg"
     xmlns:xlink="http://www.w3.org/1999/xlink">
    <defs>
        <clipPath id="i0">
            <path d="M1920,0 L1920,1454 L0,1454 L0,0 L1920,0 Z"></path>
        </clipPath>
        <clipPath id="i1">
            <path d="M40.4634146,79 L20.2317073,79 L20.2317073,58.7682927 L0,58.7682927 L0,38.5365854 L19.75,38.536 L19.75,19.75 L0,19.75 L0,0 L79,0 L79,79 L59.25,79 L59.25,59.25 L40.463,59.25 L40.4634146,79 Z M20.231,39.5 L20.2317073,58.7682927 L39.5,58.768 L39.5,39.5 L20.231,39.5 Z"></path>
        </clipPath>
        <clipPath id="i2">
            <path d="M10.5234188,0 C12.4038922,0 14.0794423,0.347336066 15.550069,1.0420082 C17.0206957,1.73668033 18.1628422,2.71721311 18.9765086,3.98360656 C19.790175,5.25 20.1970082,6.68852459 20.1970082,8.29918033 L14.7725655,8.29918033 C14.7725655,7.06967213 14.3928545,6.11372951 13.6334326,5.43135246 C12.8740106,4.74897541 11.8072035,4.40778689 10.4330114,4.40778689 C9.10703653,4.40778689 8.07639242,4.69364754 7.34107908,5.26536885 C6.60576574,5.83709016 6.23810907,6.59016393 6.23810907,7.52459016 C6.23810907,8.39754098 6.6690509,9.12909836 7.53093457,9.7192623 C8.39281824,10.3094262 9.66153511,10.8627049 11.3370852,11.3790984 C14.4229903,12.3258197 16.6711205,13.5 18.0814756,14.9016393 C19.4918307,16.3032787 20.1970082,18.0491803 20.1970082,20.1393443 C20.1970082,22.4631148 19.3351245,24.2858607 17.6113572,25.607582 C15.8875899,26.9293033 13.5671338,27.5901639 10.6499891,27.5901639 C8.62486384,27.5901639 6.78055334,27.2120902 5.11705758,26.4559426 C3.45356183,25.6997951 2.18484496,24.6639344 1.31090698,23.3483607 C0.436968993,22.0327869 0,20.5081967 0,18.7745902 L5.44252414,18.7745902 C5.44252414,21.7377049 7.1783458,23.2192623 10.6499891,23.2192623 C11.939801,23.2192623 12.9463365,22.9518443 13.6695955,22.4170082 C14.3928545,21.8821721 14.7544841,21.1352459 14.7544841,20.1762295 C14.7544841,19.1311475 14.3928545,18.3288934 13.6695955,17.7694672 C12.9463365,17.210041 11.6444703,16.619877 9.7639968,15.9989754 C7.88352335,15.3780738 6.39481519,14.7663934 5.29787234,14.1639344 C2.30840171,12.5163934 0.8136664,10.2971311 0.8136664,7.50614754 C0.8136664,6.05532787 1.21447244,4.76127049 2.01608453,3.62397541 C2.81769661,2.48668033 3.96888389,1.59836066 5.46964636,0.959016393 C6.97040883,0.319672131 8.65499964,0 10.5234188,0 Z"></path>
        </clipPath>
        <clipPath id="i3">
            <path d="M8.08241958,0 L8.08241958,4.9057377 L11.4274926,4.9057377 L11.4274926,8.81557377 L8.08241958,8.81557377 L8.08241958,18.7745902 C8.08241958,19.5122951 8.22104422,20.0409836 8.49829352,20.3606557 C8.77554281,20.6803279 9.30593276,20.8401639 10.0894634,20.8401639 C10.6680706,20.8401639 11.1803791,20.7971311 11.6263888,20.7110656 L11.6263888,24.75 C10.6017718,25.0696721 9.5470191,25.2295082 8.46213056,25.2295082 C4.79761818,25.2295082 2.92919904,23.3422131 2.85687314,19.567623 L2.85687314,8.81557377 L0,8.81557377 L0,4.9057377 L2.85687314,4.9057377 L2.85687314,0 L8.08241958,0 Z"></path>
        </clipPath>
        <clipPath id="i4">
            <path d="M8.75143417,0 C11.1622976,0 13.0759204,0.617827869 14.4923027,1.85348361 C15.9086849,3.08913934 16.616876,4.82581967 16.616876,7.06352459 L16.616876,15.7131148 C16.6289304,17.6065574 16.8880982,19.0389344 17.3943795,20.0102459 L17.3943795,20.3237705 L12.1145886,20.3237705 C11.8735023,19.8442623 11.6987147,19.2479508 11.5902258,18.5348361 C10.3245225,19.9733607 8.67910827,20.692623 6.65398301,20.692623 C4.7373466,20.692623 3.14919033,20.1270492 1.8895142,18.9959016 C0.629838065,17.8647541 0,16.4385246 0,14.7172131 C0,12.602459 0.768462711,10.9795082 2.30538813,9.84836066 C3.84231356,8.71721311 6.06332147,8.1454918 8.96841188,8.13319672 L11.3732481,8.13319672 L11.3732481,6.9897541 C11.3732481,6.06762295 11.1412025,5.32991803 10.6771113,4.77663934 C10.2130201,4.22336066 9.48072035,3.94672131 8.48021204,3.94672131 C7.6002469,3.94672131 6.91013724,4.16188525 6.40988309,4.59221311 C5.90962893,5.02254098 5.65950185,5.61270492 5.65950185,6.36270492 L0.433955414,6.36270492 C0.433955414,5.20696721 0.783530608,4.13729508 1.482681,3.15368852 C2.18183138,2.17008197 3.17028538,1.39856557 4.44804299,0.839139344 C5.7258006,0.279713115 7.16026432,0 8.75143417,0 Z M11.3732481,11.25 L9.42044877,11.25 C6.80466197,11.25 5.41238835,12.1721311 5.24362791,14.0163934 L5.22554644,14.329918 C5.22554644,14.9938525 5.45457846,15.5409836 5.91264251,15.9713115 C6.37070656,16.4016393 6.99753104,16.6168033 7.79311597,16.6168033 C8.56459226,16.6168033 9.27579696,16.4415984 9.92673008,16.0911885 C10.5776632,15.7407787 11.0598359,15.2704918 11.3732481,14.6803279 L11.3732481,11.25 Z"></path>
        </clipPath>
        <clipPath id="i5">
            <path d="M9.43853024,0 C10.0171375,0 10.5595817,0.0799180328 11.065863,0.239754098 L10.9935371,5.36680328 C10.2823324,5.26844262 9.65550795,5.2192623 9.11306368,5.2192623 C7.13615569,5.2192623 5.84031661,5.90163934 5.22554644,7.26639344 L5.22554644,20.3237705 L0,20.3237705 L0,0.368852459 L4.93624283,0.368852459 L5.08089463,2.74795082 C6.12962022,0.915983607 7.58216542,0 9.43853024,0 Z"></path>
        </clipPath>
        <clipPath id="i6">
            <path d="M8.08241958,0 L8.08241958,4.9057377 L11.4274926,4.9057377 L11.4274926,8.81557377 L8.08241958,8.81557377 L8.08241958,18.7745902 C8.08241958,19.5122951 8.22104422,20.0409836 8.49829352,20.3606557 C8.77554281,20.6803279 9.30593276,20.8401639 10.0894634,20.8401639 C10.6680706,20.8401639 11.1803791,20.7971311 11.6263888,20.7110656 L11.6263888,24.75 C10.6017718,25.0696721 9.5470191,25.2295082 8.46213056,25.2295082 C4.79761818,25.2295082 2.92919904,23.3422131 2.85687314,19.567623 L2.85687314,8.81557377 L0,8.81557377 L0,4.9057377 L2.85687314,4.9057377 L2.85687314,0 L8.08241958,0 Z"></path>
        </clipPath>
        <clipPath id="i7">
            <path d="M5.22554644,0 L5.22554644,12.8913934 C5.22554644,14.9692623 6.15372885,16.0081967 8.01009368,16.0081967 C9.78207828,16.0081967 10.9995643,15.3811475 11.6625517,14.1270492 L11.6625517,0 L16.9061797,0 L16.9061797,19.954918 L11.9880183,19.954918 L11.8433665,17.9262295 C10.5535546,19.5245902 8.76951565,20.3237705 6.49124973,20.3237705 C4.39379856,20.3237705 2.79358797,19.7090164 1.69061797,18.4795082 C0.587647956,17.25 0.0241086341,15.4487705 0,13.0758197 L0,0 L5.22554644,0 Z"></path>
        </clipPath>
        <clipPath id="i8">
            <path d="M9.98097451,0 C12.3918379,0 14.2662842,0.909836066 15.6043134,2.7295082 C16.9423426,4.54918033 17.6113572,7.05737705 17.6113572,10.2540984 L17.6113572,10.5307377 C17.6113572,13.6045082 16.9272747,16.0665984 15.5591097,17.9170082 C14.1909447,19.767418 12.3436207,20.692623 10.0171375,20.692623 C8.04022947,20.692623 6.44303246,19.9918033 5.22554644,18.5901639 L5.22554644,27.9959016 L0,27.9959016 L0,0.368852459 L4.84583545,0.368852459 L5.02665021,2.32377049 C6.2923535,0.774590164 7.94379493,0 9.98097451,0 Z M8.60678237,4.33401639 C6.96739525,4.33401639 5.84031661,4.97336066 5.22554644,6.25204918 L5.22554644,14.4221311 C5.86442524,15.7377049 7.0035582,16.3954918 8.64294532,16.3954918 C11.1381889,16.3954918 12.3858108,14.3114754 12.3858108,10.1434426 C12.3858108,8.28688525 12.0633578,6.8545082 11.4184518,5.84631148 C10.7735459,4.83811475 9.83632271,4.33401639 8.60678237,4.33401639 Z"></path>
        </clipPath>
        <clipPath id="i9">
            <path d="M7.08793842,0 L13.8504103,19.4754098 L20.5767192,0 L27.7008206,0 L27.7008206,26.852459 L22.2582964,26.852459 L22.2582964,19.5122951 L22.8007407,6.84221311 L15.6947208,26.852459 L11.9699368,26.852459 L4.8819984,6.86065574 L5.42444267,19.5122951 L5.42444267,26.852459 L0,26.852459 L0,0 L7.08793842,0 Z"></path>
        </clipPath>
        <clipPath id="i10">
            <path d="M8.75143417,0 C11.1622976,0 13.0759204,0.617827869 14.4923027,1.85348361 C15.9086849,3.08913934 16.616876,4.82581967 16.616876,7.06352459 L16.616876,15.7131148 C16.6289304,17.6065574 16.8880982,19.0389344 17.3943795,20.0102459 L17.3943795,20.3237705 L12.1145886,20.3237705 C11.8735023,19.8442623 11.6987147,19.2479508 11.5902258,18.5348361 C10.3245225,19.9733607 8.67910827,20.692623 6.65398301,20.692623 C4.7373466,20.692623 3.14919033,20.1270492 1.8895142,18.9959016 C0.629838065,17.8647541 0,16.4385246 0,14.7172131 C0,12.602459 0.768462711,10.9795082 2.30538813,9.84836066 C3.84231356,8.71721311 6.06332147,8.1454918 8.96841188,8.13319672 L11.3732481,8.13319672 L11.3732481,6.9897541 C11.3732481,6.06762295 11.1412025,5.32991803 10.6771113,4.77663934 C10.2130201,4.22336066 9.48072035,3.94672131 8.48021204,3.94672131 C7.6002469,3.94672131 6.91013724,4.16188525 6.40988309,4.59221311 C5.90962893,5.02254098 5.65950185,5.61270492 5.65950185,6.36270492 L0.433955414,6.36270492 C0.433955414,5.20696721 0.783530608,4.13729508 1.482681,3.15368852 C2.18183138,2.17008197 3.17028538,1.39856557 4.44804299,0.839139344 C5.7258006,0.279713115 7.16026432,0 8.75143417,0 Z M11.3732481,11.25 L9.42044877,11.25 C6.80466197,11.25 5.41238835,12.1721311 5.24362791,14.0163934 L5.22554644,14.329918 C5.22554644,14.9938525 5.45457846,15.5409836 5.91264251,15.9713115 C6.37070656,16.4016393 6.99753104,16.6168033 7.79311597,16.6168033 C8.56459226,16.6168033 9.27579696,16.4415984 9.92673008,16.0911885 C10.5776632,15.7407787 11.0598359,15.2704918 11.3732481,14.6803279 L11.3732481,11.25 Z"></path>
        </clipPath>
        <clipPath id="i11">
            <path d="M9.43853024,0 C10.0171375,0 10.5595817,0.0799180328 11.065863,0.239754098 L10.9935371,5.36680328 C10.2823324,5.26844262 9.65550795,5.2192623 9.11306368,5.2192623 C7.13615569,5.2192623 5.84031661,5.90163934 5.22554644,7.26639344 L5.22554644,20.3237705 L0,20.3237705 L0,0.368852459 L4.93624283,0.368852459 L5.08089463,2.74795082 C6.12962022,0.915983607 7.58216542,0 9.43853024,0 Z"></path>
        </clipPath>
        <clipPath id="i12">
            <path d="M5.22554644,0 L5.22554644,15.6946721 L6.23810907,14.3668033 L11.2466778,8.37295082 L17.5209498,8.37295082 L10.4510929,16.6905738 L18.13572,28.3278689 L12.1326701,28.3278689 L7.1060199,20.3237705 L5.22554644,22.2418033 L5.22554644,28.3278689 L0,28.3278689 L0,0 L5.22554644,0 Z"></path>
        </clipPath>
        <clipPath id="i13">
            <path d="M9.13114516,0 C11.8072035,0 13.9136954,0.860655738 15.4506209,2.58196721 C16.9875463,4.30327869 17.756009,6.74385246 17.756009,9.90368852 L17.756009,12.079918 L5.29787234,12.079918 C5.46663278,13.3831967 5.97592767,14.4282787 6.82575703,15.2151639 C7.67558638,16.0020492 8.75143417,16.3954918 10.0533004,16.3954918 C12.0663714,16.3954918 13.6394597,15.6516393 14.7725655,14.1639344 L17.3401351,17.0963115 C16.5566045,18.227459 15.4958246,19.1096311 14.1577954,19.7428279 C12.8197662,20.3760246 11.3370852,20.692623 9.70975238,20.692623 C6.84082492,20.692623 4.50530099,19.795082 2.7031806,18 C0.901060199,16.204918 0,13.8135246 0,10.8258197 L0,10.3094262 C0,8.30532787 0.379710987,6.51331967 1.13913296,4.93340164 C1.89855493,3.35348361 2.97440273,2.13627049 4.36667635,1.2817623 C5.75894997,0.427254098 7.34710624,0 9.13114516,0 Z M9.11306368,4.31557377 C8.07639242,4.31557377 7.23560381,4.67213115 6.59069784,5.3852459 C5.94579188,6.09836066 5.53293152,7.11885246 5.35211677,8.44672131 L12.6208699,8.44672131 L12.6208699,8.02254098 C12.5967613,6.84221311 12.2833491,5.92930328 11.6806332,5.28381148 C11.0779174,4.63831967 10.2220609,4.31557377 9.11306368,4.31557377 Z"></path>
        </clipPath>
        <clipPath id="i14">
            <path d="M8.08241958,0 L8.08241958,4.9057377 L11.4274926,4.9057377 L11.4274926,8.81557377 L8.08241958,8.81557377 L8.08241958,18.7745902 C8.08241958,19.5122951 8.22104422,20.0409836 8.49829352,20.3606557 C8.77554281,20.6803279 9.30593276,20.8401639 10.0894634,20.8401639 C10.6680706,20.8401639 11.1803791,20.7971311 11.6263888,20.7110656 L11.6263888,24.75 C10.6017718,25.0696721 9.5470191,25.2295082 8.46213056,25.2295082 C4.79761818,25.2295082 2.92919904,23.3422131 2.85687314,19.567623 L2.85687314,8.81557377 L0,8.81557377 L0,4.9057377 L2.85687314,4.9057377 L2.85687314,0 L8.08241958,0 Z"></path>
        </clipPath>
    </defs>
    <g transform="translate(-783.0 -51.0)">
        <g clip-path="url(#i0)">
            <g transform="translate(783.0000000000001 51.0)">
                <g clip-path="url(#i1)">
                    <polygon points="0,0 79,0 79,79 0,79 0,0" stroke="none" fill="#1D96DC"></polygon>
                </g>
                <g transform="translate(104.99999999999999 21.999999999999996)">
                    <g transform="translate(0.0 1.1065573770492847)">
                        <g clip-path="url(#i2)">
                            <polygon points="0,0 20.1970082,0 20.1970082,27.5901639 0,27.5901639 0,0" stroke="none"
                                     fill="#1D96DC"></polygon>
                        </g>
                    </g>
                    <g transform="translate(21.69777067751056 3.4672131147540313)">
                        <g clip-path="url(#i3)">
                            <polygon points="0,0 11.6263888,0 11.6263888,25.2295082 0,25.2295082 0,0" stroke="none"
                                     fill="#1D96DC"></polygon>
                        </g>
                    </g>
                    <g transform="translate(35.25887735095489 8.004098360655915)">
                        <g clip-path="url(#i4)">
                            <polygon points="0,0 17.3943795,0 17.3943795,20.692623 0,20.692623 0,0" stroke="none"
                                     fill="#1D96DC"></polygon>
                        </g>
                    </g>
                    <g transform="translate(55.88984097015464 8.004098360655918)">
                        <g clip-path="url(#i5)">
                            <polygon points="0,0 11.065863,0 11.065863,20.3237705 0,20.3237705 0,0" stroke="none"
                                     fill="#1D96DC"></polygon>
                        </g>
                    </g>
                    <g transform="translate(68.47454796311087 3.4672131147540313)">
                        <g clip-path="url(#i6)">
                            <polygon points="0,0 11.6263888,0 11.6263888,25.2295082 0,25.2295082 0,0" stroke="none"
                                     fill="#1D96DC"></polygon>
                        </g>
                    </g>
                    <g transform="translate(82.68658775688039 8.372950819671132)">
                        <g clip-path="url(#i7)">
                            <polygon points="0,0 16.9061797,0 16.9061797,20.3237705 0,20.3237705 0,0" stroke="none"
                                     fill="#1D96DC"></polygon>
                        </g>
                    </g>
                    <g transform="translate(103.5345290828553 8.004098360655917)">
                        <g clip-path="url(#i8)">
                            <polygon points="0,0 17.6113572,0 17.6113572,27.9959016 0,27.9959016 0,0" stroke="none"
                                     fill="#1D96DC"></polygon>
                        </g>
                    </g>
                    <g transform="translate(133.9475709824995 1.4754098360658645)">
                        <g clip-path="url(#i9)">
                            <polygon points="0,0 27.7008206,0 27.7008206,26.852459 0,26.852459 0,0" stroke="none"
                                     fill="#1D96DC"></polygon>
                        </g>
                    </g>
                    <g transform="translate(165.2646866603733 8.004098360655915)">
                        <g clip-path="url(#i10)">
                            <polygon points="0,0 17.3943795,0 17.3943795,20.692623 0,20.692623 0,0" stroke="none"
                                     fill="#1D96DC"></polygon>
                        </g>
                    </g>
                    <g transform="translate(185.895650279573 8.004098360655918)">
                        <g clip-path="url(#i11)">
                            <polygon points="0,0 11.065863,0 11.065863,20.3237705 0,20.3237705 0,0" stroke="none"
                                     fill="#1D96DC"></polygon>
                        </g>
                    </g>
                    <g transform="translate(199.4025125263236 0.0)">
                        <g clip-path="url(#i12)">
                            <polygon points="0,0 18.13572,0 18.13572,28.3278689 0,28.3278689 0,0" stroke="none"
                                     fill="#1D96DC"></polygon>
                        </g>
                    </g>
                    <g transform="translate(218.4784692469682 8.004098360655918)">
                        <g clip-path="url(#i13)">
                            <polygon points="0,0 17.756009,0 17.756009,20.692623 0,20.692623 0,0" stroke="none"
                                     fill="#1D96DC"></polygon>
                        </g>
                    </g>
                    <g transform="translate(237.3736112119669 3.4672131147540313)">
                        <g clip-path="url(#i14)">
                            <polygon points="0,0 11.6263888,0 11.6263888,25.2295082 0,25.2295082 0,0" stroke="none"
                                     fill="#1D96DC"></polygon>
                        </g>
                    </g>
                </g>
            </g>
        </g>
    </g>
</svg>